<svg xmlns="http://www.w3.org/2000/svg" viewBox="0 0 1440 320">
	
	<path fill="hsl(250 70% 100% / 3%)" d="M0 32l40 10.7C80 53 160 74.9 240 111.9s160 90.9 240 85.2c80-5.3 160-69.2 240-80 80-10.2 160 31.8 240 53.4 80 21.3 160 21.3 240 32 80 10.3 160 32.2 200 42.5l40 10.7v64H0z"></path>
	
	<path fill="hsl(250 70% 100% / 3%)" d="M0 0l40 26.7c40 26.2 120 80.2 200 85.2s160-37 240-21.3c80 16.3 160 90.2 240 101.2s160-43 240-42.7c80-.3 160 53.7 240 69.4 80 16.2 160-5.7 200-16l40-10.7v127.8H0z"></path>
	
	<path fill="hsl(250 70% 100% / 3%)" d="M0 32l40 42.6C80 117 160 202.8 240 218.5c80 16.2 160-37.7 240-58.7s160-11 240 0 160 21 240 16 160-27 240-26.6c80-.3 160 21.6 200 32l40 10.6v127.8H0z"></path>
	
	<path fill="hsl(250 70% 100% / 3%)" d="M0 160.2l40-26.7c40-26.2 120-80.2 200-95.8 80-16.3 160 5.6 240 26.6s160 43 240 58.6c80 16.3 160 26.3 240 21.3s160-27 240-26.6c80-.3 160 21.6 200 32l40 10.6V320H0z"></path>
	
	<path fill="hsl(250 70% 100% / 3%)" d="M0 159.3L40 186c40 26.3 120 80.3 200 80 80 .3 160-53.7 240-69.4 80-16.3 160 5.7 240 5.4 80 .3 160-21.7 240-53.4 80-32.3 160-74.3 240-74.6 80 .3 160 42.3 200 64l40 21.3v160H0z"></path>
	
</svg>