<svg width="20" height="20" viewBox="0 0 20 20" fill="none" xmlns="http://www.w3.org/2000/svg">
<path d="M17.875 5.78271H14.3155C14.5709 5.59646 14.7903 5.41142 14.9433 5.2456C15.85 4.27113 15.85 2.68505 14.9433 1.71058C14.0624 0.763741 12.5256 0.762539 11.6436 1.71058C11.1565 2.23326 9.86159 4.36124 10.0405 5.78271H9.95955C10.1373 4.36124 8.8435 2.23326 8.35637 1.71058C7.47437 0.762539 5.93763 0.763741 5.05675 1.71058C4.15 2.68505 4.15 4.27113 5.05563 5.2456C5.20975 5.41142 5.42913 5.59646 5.6845 5.78271H2.125C1.50513 5.78271 1 6.32221 1 6.98428V9.98821C1 10.3198 1.252 10.589 1.5625 10.589H2.125V17.7984C2.125 18.4605 2.63013 19 3.25 19H16.75C17.3699 19 17.875 18.4605 17.875 17.7984V10.589H18.4375C18.748 10.589 19 10.3198 19 9.98821V6.98428C19 6.32221 18.4949 5.78271 17.875 5.78271ZM5.85437 2.55769C6.08276 2.31257 6.38537 2.178 6.70713 2.178C7.02775 2.178 7.33037 2.31257 7.55875 2.55769C8.317 3.37235 9.07075 5.45347 8.80863 5.74306C8.80863 5.74306 8.76137 5.78271 8.6005 5.78271C7.82313 5.78271 6.33925 4.91998 5.85437 4.3985C5.383 3.89143 5.383 3.06475 5.85437 2.55769ZM9.4375 17.7984H3.25V10.589H9.4375V17.7984ZM9.4375 9.38743H2.125V6.98428H8.6005H9.4375V9.38743ZM12.4413 2.55769C12.898 2.06864 13.69 2.06985 14.1456 2.55769C14.617 3.06475 14.617 3.89143 14.1456 4.3985C13.6607 4.91998 12.1769 5.78271 11.3995 5.78271C11.2386 5.78271 11.1914 5.74426 11.1903 5.74306C10.9293 5.45347 11.683 3.37235 12.4413 2.55769ZM16.75 17.7984H10.5625V10.589H16.75V17.7984ZM17.875 9.38743H10.5625V6.98428H11.3995H17.875V9.38743Z" fill="#C91F92" stroke="#C91F92" stroke-width="0.25"/>
</svg>
