<svg width="22" height="20" viewBox="0 0 22 20" fill="none" xmlns="http://www.w3.org/2000/svg">
<mask id="path-1-outside-1" maskUnits="userSpaceOnUse" x="0" y="4" width="22" height="11" fill="black">
<rect fill="white" y="4" width="22" height="11"/>
<path d="M6.75582 14H5.37121L1.97348 6.82832H1.93567L1.9593 7.22845C2.00341 7.99179 2.02546 8.68947 2.02546 9.32148V14H1V5H2.37043L5.75871 12.1347H5.78706C5.78076 12.0404 5.76816 11.6977 5.74926 11.1067C5.73036 10.5116 5.7209 10.0479 5.7209 9.71546V5H6.75582V14Z"/>
<path d="M11.9073 14H7.99923V5H11.9073V6.2435H9.12865V8.69357H11.7325V9.92476H9.12865V12.7503H11.9073V14Z"/>
<path d="M19.1995 14H17.9709L16.7989 8.63201C16.7485 8.39808 16.6855 8.06156 16.6099 7.62243C16.5343 7.17921 16.4886 6.87141 16.4728 6.69904C16.4413 6.9617 16.3894 7.30233 16.3169 7.72093C16.2476 8.13953 16.1893 8.45144 16.1421 8.65663L14.9985 14H13.7698L12.8766 9.49384L11.9693 5H13.1224L14.11 10.2449C14.2644 11.0862 14.3747 11.829 14.4408 12.4733C14.4755 12.1245 14.5275 11.7346 14.5968 11.3037C14.6661 10.8728 14.7291 10.5239 14.7858 10.2572L15.9105 5H17.0305L18.1835 10.2818C18.2938 10.7702 18.4104 11.5007 18.5332 12.4733C18.5805 11.8865 18.6939 11.1395 18.8735 10.2326L19.8564 5H21L19.1995 14Z"/>
</mask>
<path d="M6.75582 14H5.37121L1.97348 6.82832H1.93567L1.9593 7.22845C2.00341 7.99179 2.02546 8.68947 2.02546 9.32148V14H1V5H2.37043L5.75871 12.1347H5.78706C5.78076 12.0404 5.76816 11.6977 5.74926 11.1067C5.73036 10.5116 5.7209 10.0479 5.7209 9.71546V5H6.75582V14Z" fill="black"/>
<path d="M11.9073 14H7.99923V5H11.9073V6.2435H9.12865V8.69357H11.7325V9.92476H9.12865V12.7503H11.9073V14Z" fill="black"/>
<path d="M19.1995 14H17.9709L16.7989 8.63201C16.7485 8.39808 16.6855 8.06156 16.6099 7.62243C16.5343 7.17921 16.4886 6.87141 16.4728 6.69904C16.4413 6.9617 16.3894 7.30233 16.3169 7.72093C16.2476 8.13953 16.1893 8.45144 16.1421 8.65663L14.9985 14H13.7698L12.8766 9.49384L11.9693 5H13.1224L14.11 10.2449C14.2644 11.0862 14.3747 11.829 14.4408 12.4733C14.4755 12.1245 14.5275 11.7346 14.5968 11.3037C14.6661 10.8728 14.7291 10.5239 14.7858 10.2572L15.9105 5H17.0305L18.1835 10.2818C18.2938 10.7702 18.4104 11.5007 18.5332 12.4733C18.5805 11.8865 18.6939 11.1395 18.8735 10.2326L19.8564 5H21L19.1995 14Z" fill="black"/>
<path d="M6.75582 14H5.37121L1.97348 6.82832H1.93567L1.9593 7.22845C2.00341 7.99179 2.02546 8.68947 2.02546 9.32148V14H1V5H2.37043L5.75871 12.1347H5.78706C5.78076 12.0404 5.76816 11.6977 5.74926 11.1067C5.73036 10.5116 5.7209 10.0479 5.7209 9.71546V5H6.75582V14Z" stroke="black" stroke-width="0.5" mask="url(#path-1-outside-1)"/>
<path d="M11.9073 14H7.99923V5H11.9073V6.2435H9.12865V8.69357H11.7325V9.92476H9.12865V12.7503H11.9073V14Z" stroke="black" stroke-width="0.5" mask="url(#path-1-outside-1)"/>
<path d="M19.1995 14H17.9709L16.7989 8.63201C16.7485 8.39808 16.6855 8.06156 16.6099 7.62243C16.5343 7.17921 16.4886 6.87141 16.4728 6.69904C16.4413 6.9617 16.3894 7.30233 16.3169 7.72093C16.2476 8.13953 16.1893 8.45144 16.1421 8.65663L14.9985 14H13.7698L12.8766 9.49384L11.9693 5H13.1224L14.11 10.2449C14.2644 11.0862 14.3747 11.829 14.4408 12.4733C14.4755 12.1245 14.5275 11.7346 14.5968 11.3037C14.6661 10.8728 14.7291 10.5239 14.7858 10.2572L15.9105 5H17.0305L18.1835 10.2818C18.2938 10.7702 18.4104 11.5007 18.5332 12.4733C18.5805 11.8865 18.6939 11.1395 18.8735 10.2326L19.8564 5H21L19.1995 14Z" stroke="black" stroke-width="0.5" mask="url(#path-1-outside-1)"/>
</svg>
