<svg width="20" height="20" viewBox="0 0 20 20" fill="none" xmlns="http://www.w3.org/2000/svg">
<path d="M4.45055 10.497C3.26374 10.497 2.39194 10.1786 1.83516 9.54202C1.27839 8.9054 1 8.00244 1 6.83313V5.60536C1 4.41007 1.27106 3.5136 1.81319 2.91596C2.35531 2.30532 3.23443 2 4.45055 2C5.66667 2 6.54579 2.29233 7.08791 2.87698C7.63004 3.46163 7.9011 4.33861 7.9011 5.50792V6.8916C7.9011 8.0609 7.62271 8.95737 7.06593 9.581C6.52381 10.1916 5.65201 10.497 4.45055 10.497ZM11.4615 2.09744H13.4835L8.6044 17.9026H6.56044L11.4615 2.09744ZM4.45055 8.91839C4.96337 8.91839 5.30769 8.7365 5.48352 8.37272C5.67399 8.00893 5.76923 7.51523 5.76923 6.8916V5.50792C5.76923 4.88429 5.68132 4.41007 5.50549 4.08526C5.32967 3.74746 4.97802 3.57856 4.45055 3.57856C3.92308 3.57856 3.57143 3.74746 3.3956 4.08526C3.23443 4.42306 3.15385 4.90378 3.15385 5.52741V6.91108C3.15385 7.53471 3.24176 8.02842 3.41758 8.3922C3.60806 8.743 3.95238 8.91839 4.45055 8.91839ZM15.5494 18C13.2637 18 12.1209 16.7787 12.1209 14.3362V13.1084C12.1209 11.9261 12.3846 11.0296 12.9121 10.419C13.4542 9.80836 14.3333 9.50305 15.5494 9.50305C16.7656 9.50305 17.6447 9.79537 18.1868 10.38C18.7289 10.9647 19 11.8482 19 13.0305V14.3946C19 15.5769 18.7216 16.4734 18.1648 17.084C17.6227 17.6947 16.7509 18 15.5494 18ZM15.5494 16.4214C16.0623 16.4214 16.4066 16.246 16.5824 15.8953C16.7729 15.5315 16.8681 15.0378 16.8681 14.4141V13.011C16.8681 12.3873 16.7802 11.9131 16.6044 11.5883C16.4286 11.2505 16.0769 11.0816 15.5494 11.0816C15.022 11.0816 14.6703 11.2505 14.4945 11.5883C14.3333 11.9261 14.2527 12.4068 14.2527 13.0305V14.4141C14.2527 15.0378 14.3407 15.5315 14.5165 15.8953C14.707 16.246 15.0513 16.4214 15.5494 16.4214Z" fill="#FF020F"/>
</svg>
