<svg xmlns="http://www.w3.org/2000/svg" width="41.79mm" height="25.11mm" viewBox="0 0 118.45 71.19">
  <defs>
    <style>
      .a, .b {
        fill: none;
      }

      .b, .c {
        stroke: #000;
      }

      .b {
        stroke-linecap: round;
        stroke-linejoin: round;
        stroke-width: 0.64px;
      }

      .c {
        stroke-miterlimit: 10;
        stroke-width: 0.21px;
      }
    </style>
  </defs>
  <title>logo-4</title>
  <g>
    <path class="a" d="M59.23,0C26.52,0,0,15.94,0,35.59s26.52,35.6,59.23,35.6,59.22-15.94,59.22-35.6S91.94,0,59.23,0"/>
    <g>
      <path d="M36.3,54.12l-.13.64-.74-.16L35,59.69h0l1.81-3.33.29,3.78h0l1.66-4.83L38,55.15l.13-.64,1.72.37-.14.64-.4-.09-2.13,6.19-.57-.12-.26-3.17-1.54,2.79L34.27,61l.59-6.52-.41-.09.14-.64Z"/>
      <path d="M40,58.45c.26-1.76,1.25-3.5,2.84-3.26s2,2.19,1.76,4-1.25,3.5-2.85,3.26S39.74,60.21,40,58.45Zm4,.6c.2-1.32,0-3-1.23-3.22s-1.92,1.39-2.12,2.71,0,3,1.23,3.21S43.79,60.36,44,59.05Z"/>
      <path d="M50.53,63.27l-1.06-.1L48,59.82l-.94-.09-.24,2.53.92.08-.07.66-2.3-.23.06-.65.79.08.54-5.59L46,56.42l.06-.62a3.18,3.18,0,0,0,.87.22c.5,0,1,0,1.5,0a1.69,1.69,0,0,1,1.67,2,1.83,1.83,0,0,1-1.43,1.76l1.23,2.78.69.07Zm-3.39-4.16.5.06c1.23.14,1.76-.39,1.83-1.14a1.12,1.12,0,0,0-1.09-1.35,6.63,6.63,0,0,0-1,0Z"/>
      <path d="M52.49,57.11l-.76-.23,0-.55a6,6,0,0,0,.92.18c.38,0,.75-.11,1.2-.09,1.4.07,2.53,1.22,2.42,3.67s-1.23,3.4-2.53,3.34a9.61,9.61,0,0,0-1.3-.1l-1,.09-.06-.66.8,0Zm.33,5.62,1,.05c1.05,0,1.79-.62,1.88-2.58.11-2.33-1-3.2-1.88-3.13l-.7.07Z"/>
      <path d="M59.17,62.93h1.46v.66l-2.86,0v-.66h.8l0-5.68-.81-.11v-.56a8.72,8.72,0,0,0,1,.13c.55,0,1.1-.15,1.66-.15a1.62,1.62,0,0,1,1.72,1.82A2,2,0,0,1,60,60.6l-.82,0Zm0-3L60,60a1.35,1.35,0,0,0,1.52-1.54,1.16,1.16,0,0,0-1.21-1.3,8.87,8.87,0,0,0-1.14.14Z"/>
      <path d="M68.67,63.32l-1.06,0-1.92-3.1-.94,0,.12,2.53.92,0,0,.65-2.31.11,0-.66.8,0L64,57.26l-.81-.08,0-.62a3.24,3.24,0,0,0,.89.1c.5,0,1-.19,1.49-.21a1.71,1.71,0,0,1,1.94,1.72,1.85,1.85,0,0,1-1.17,1.95l1.61,2.58.7,0Zm-4-3.64h.51c1.23,0,1.68-.63,1.64-1.39A1.11,1.11,0,0,0,65.6,57.1a9,9,0,0,0-1,.13Z"/>
      <path d="M69.52,63.25l-.06-.65,1-.09-.54-5.67-1,.09-.06-.65,4.58-.44.2,2-.6.06,0-.31c-.09-1-.13-1.06-.89-1l-1.64.16.22,2.2L72,58.85l-.1-1,.6-.06.27,2.72-.6.06-.11-1.09-1.32.13L71,62.45l1.81-.17c.73-.07.79-.19.66-1.48l0-.22.6,0,.22,2.26Z"/>
      <path d="M78.13,62.4a2.29,2.29,0,0,1-1.4-.21l0,.43h-.59l-.09-1.24a4.39,4.39,0,0,0-.25-1l.56-.19.14.54a1.32,1.32,0,0,0,2.61-.39c-.31-2-3.24-.46-3.62-3a1.85,1.85,0,0,1,1.63-2.16,2.21,2.21,0,0,1,1.13.14v-.46l.59,0L79,56.06a3.91,3.91,0,0,0,.24,1l-.57.19a3.7,3.7,0,0,0-.3-1.06,1,1,0,0,0-1.09-.38,1.19,1.19,0,0,0-1.09,1.37c.28,1.86,3.22.38,3.61,3A1.89,1.89,0,0,1,78.13,62.4Z"/>
      <path d="M84.15,61.31a2.29,2.29,0,0,1-1.41-.13l.06.43-.59,0-.16-1.23a4.84,4.84,0,0,0-.31-1l.54-.22.18.53A1.32,1.32,0,0,0,85,59.18c-.44-2-3.26-.27-3.8-2.77a1.85,1.85,0,0,1,1.5-2.25,2.08,2.08,0,0,1,1.13.07l0-.46h.6l.16,1.16a3.78,3.78,0,0,0,.3,1l-.56.23a3.56,3.56,0,0,0-.36-1,1,1,0,0,0-1.12-.31,1.19,1.19,0,0,0-1,1.43c.39,1.84,3.24.19,3.79,2.75A1.89,1.89,0,0,1,84.15,61.31Z"/>
    </g>
    <path class="a" d="M118.45,35.59C118.45,15.94,91.94,0,59.23,0"/>
    <path class="a" d="M59.23,0C26.52,0,0,15.94,0,35.59s26.52,35.6,59.23,35.6"/>
    <g>
      <path class="b" d="M88.16,57a65.78,65.78,0,0,0,7.49-2.47,45.77,45.77,0,0,0,6.19-3"/>
      <path class="b" d="M18.05,51A43.51,43.51,0,0,0,24.2,54.1a65,65,0,0,0,7.46,2.56"/>
    </g>
    <g>
      <path class="c" d="M40.9,17.12l1.26,9.28-.36.05-.6-4.36A5.72,5.72,0,0,1,41.13,21a2.66,2.66,0,0,1-2.37,2.12,2.69,2.69,0,0,1-3.1-2.42,2.81,2.81,0,0,1,2.48-3.37,2.59,2.59,0,0,1,2.68,1.39,6.7,6.7,0,0,1-.22-1l-.07-.52Zm0,2.54a2.4,2.4,0,0,0-2.72-2A2.44,2.44,0,0,0,36,20.6a2.46,2.46,0,1,0,4.9-.44Z"/>
      <path class="c" d="M48.48,21a2.23,2.23,0,0,1-1.66,1.23,1.64,1.64,0,0,1-1.75-1.6l-.29-3.84.37,0,.28,3.66c.07.9.58,1.5,1.45,1.44C48,21.78,49,20,49.81,16.2l.35.07a9,9,0,0,0,0,2.18l.26,3.36-.37,0-.21-2.74a11.75,11.75,0,0,1,0-1.76A11.73,11.73,0,0,1,48.48,21Z"/>
      <path class="c" d="M59,16l.1,5.5h-.37V21a7.21,7.21,0,0,1,0-1.06,2.65,2.65,0,0,1-2.59,1.83A2.69,2.69,0,0,1,53.36,19a2.82,2.82,0,0,1,2.86-3.06,2.58,2.58,0,0,1,2.5,1.68,6.64,6.64,0,0,1-.09-1.06V16Zm-.32,2.53a2.41,2.41,0,0,0-2.47-2.31,2.45,2.45,0,0,0-2.44,2.68,2.46,2.46,0,1,0,4.92.13Z"/>
      <path class="c" d="M62.87,21.57l.4-18.18h.37l-.4,18.18Z"/>
      <path class="c" d="M67,21.71l.26-5.49.37,0-.26,5.49Zm.52-7a.31.31,0,0,1-.3-.34.31.31,0,0,1,.33-.3.3.3,0,0,1,.31.33A.31.31,0,0,1,67.56,14.71Z"/>
      <path class="c" d="M72.13,22,72.55,17l-1.84-.15,0-.32,1.84.15.24-2.85.36,0-.23,2.85,1.84.15,0,.33L72.92,17l-.42,5.07Z"/>
      <path class="c" d="M76.92,17l.44.05,1.47,5.29,2.74-4.75.41.05-3.07,5.15a25.4,25.4,0,0,1-2.82,3.73l-.27-.26a24.13,24.13,0,0,0,2.78-3.56Z"/>
    </g>
    <g>
      <path class="c" d="M47.79,6.66a2.5,2.5,0,0,1,.72.07l0,.14a2,2,0,0,0-.68-.07c-.91.06-1.63.81-1.51,2.44L46.5,12l.75,0v.13l-.75.06.12,1.61A2.24,2.24,0,0,1,45.89,16l-.09-.11a2.09,2.09,0,0,0,.68-2l-.12-1.65-.75.05v-.13l.75-.05-.21-2.76C46,7.69,46.7,6.75,47.79,6.66Z"/>
      <path class="c" d="M48.48,11.23a.13.13,0,1,1,.12-.14A.12.12,0,0,1,48.48,11.23Zm.1,2.86-.14-2.23h.15l.14,2.23Z"/>
      <path class="c" d="M51,12.12a.87.87,0,0,1,.69-.48.66.66,0,0,1,.69.67l.07,1.59h-.15l-.07-1.51c0-.36-.21-.62-.57-.6s-.88.74-1.26,2.27l-.14,0a4,4,0,0,0,0-.89l-.06-1.38h.15l0,1.13a3.93,3.93,0,0,1,0,.71A4.49,4.49,0,0,1,51,12.12Z"/>
      <path class="c" d="M53.64,12.79a1.12,1.12,0,0,1,1.12-1.25,1,1,0,0,1,1,1v.15l-2,0a1,1,0,0,0,1,1.06,1,1,0,0,0,.81-.44l.09.08a1.16,1.16,0,0,1-2.1-.64Zm.17-.19,1.81,0a.83.83,0,0,0-.87-.9A.93.93,0,0,0,53.81,12.6Z"/>
      <path class="c" d="M57.56,12.81c-.37-.1-.62-.32-.62-.66a.66.66,0,0,1,.71-.65.76.76,0,0,1,.58.26l-.1.09a.59.59,0,0,0-.48-.22.51.51,0,0,0-.56.5c0,.31.19.47.56.56s.6.3.6.62-.34.56-.71.56a1,1,0,0,1-.67-.22l.08-.11a1,1,0,0,0,.6.21c.32,0,.55-.17.55-.43S57.93,12.91,57.56,12.81Z"/>
      <path class="c" d="M60,13.81l0-2.07h-.76V11.6H60V10.44h.15v1.17h.75v.13h-.75l0,2.07Z"/>
    </g>
    <g>
      <path d="M9.9,29.36h5.56l-3,14.12h5.2l-.43,2.16H6.44Z"/>
      <path d="M34,45.64H28l-.36-4.08H22.92L21.1,45.64H18.62l7.56-16.28h6.07Zm-10.25-6h3.71l-.59-7Z"/>
      <path d="M55.09,45.64H49.4l2.36-11.08L45.68,45.64H42.2L41,34.18,38.58,45.64H36.27l3.46-16.28h6.54l.8,9.18L52,29.36h6.58Z"/>
      <path d="M74.64,33.08a4,4,0,0,1-.21,1.33,3.88,3.88,0,0,1-.6,1.05,4.7,4.7,0,0,1-.9.82A10.2,10.2,0,0,1,71.8,37a3.89,3.89,0,0,1,.66.32,2.91,2.91,0,0,1,.75.6,3.19,3.19,0,0,1,.6,1,4,4,0,0,1,.25,1.47,4.58,4.58,0,0,1-1.94,3.81,7.48,7.48,0,0,1-2.36,1.1,12,12,0,0,1-3.22.4H58.93l3.46-16.28h6.74a14.68,14.68,0,0,1,2,.14,5.65,5.65,0,0,1,1.77.55,3.57,3.57,0,0,1,1.27,1.14A3.4,3.4,0,0,1,74.64,33.08ZM65.83,44a1.91,1.91,0,0,0,1.28-.43A3.49,3.49,0,0,0,68,42.51a4.63,4.63,0,0,0,.48-1.35,6.71,6.71,0,0,0,.14-1.24,2.39,2.39,0,0,0-.37-1.42A1.37,1.37,0,0,0,67,38h-1L64.8,44Zm1.84-7.84a1.44,1.44,0,0,0,1-.33,2.62,2.62,0,0,0,.66-.84,4.25,4.25,0,0,0,.38-1.07,4.61,4.61,0,0,0,.13-1,2.26,2.26,0,0,0-.35-1.27,1.2,1.2,0,0,0-1.08-.53H67.6l-1.11,5.08Z"/>
      <path d="M75.9,45.64l3.46-16.28h6.89a11,11,0,0,1,2.79.32,4.53,4.53,0,0,1,2,1.07,4.65,4.65,0,0,1,1.18,1.94,9.69,9.69,0,0,1,.4,3,14.16,14.16,0,0,1-.48,3.67,8.8,8.8,0,0,1-1.58,3.2,7.89,7.89,0,0,1-2.88,2.27,10.1,10.1,0,0,1-4.39.86Zm7-1.8a2,2,0,0,0,1.5-.7,6.3,6.3,0,0,0,1.13-1.8,14.07,14.07,0,0,0,.79-2.4c.22-.89.39-1.74.52-2.56s.22-1.55.28-2.2.09-1.11.09-1.38a2.16,2.16,0,0,0-.32-1.25,1.29,1.29,0,0,0-1.12-.45H84.56L81.82,43.84Z"/>
      <path d="M107.86,45.64h-6l-.35-4.08H96.76l-1.82,4.08H92.46L100,29.36h6.07Zm-10.25-6h3.72l-.59-7Z"/>
    </g>
  </g>
</svg>
