<svg xmlns="http://www.w3.org/2000/svg" viewBox="0 0 511.801 511.801"><path d="M357.447 56.974a135.124 135.124 0 00-22.323-17.993l12.936-27.233c1.707-4.267 0-9.387-4.267-11.093s-9.387 0-11.093 4.267l-12.275 25.843c-16.838-8.078-37.902-13.896-63.671-13.896-26.066 0-48.041 5.296-66.25 13.856L178.247 4.921C176.54.654 171.42-1.052 167.154.654c-4.267 1.707-5.973 6.827-4.267 11.093l12.872 27.099c-36.675 23.424-54.21 60.82-56.392 88.101l-.853 9.387h274.773l-.853-9.387c-1.707-17.92-11.947-46.08-34.987-69.973zM138.14 119.267c7.68-36.693 43.52-85.333 119.467-85.333 24.124 0 44.099 5.59 60.343 14.245a7.48 7.48 0 002.803 1.969c.514.514 1.338.716 2.099.797 30.564 18.284 46.734 47.518 51.661 68.323H138.14zm-78.506 34.134c-23.893 0-42.667 18.773-42.667 42.667v119.467c0 23.893 18.773 42.667 42.667 42.667 23.893 0 42.667-18.773 42.667-42.667V196.067c-.001-23.893-18.774-42.666-42.667-42.666zm25.6 162.133c0 14.507-11.093 25.6-25.6 25.6-14.507 0-25.6-11.093-25.6-25.6V196.067c0-14.507 11.093-25.6 25.6-25.6 14.507 0 25.6 11.093 25.6 25.6v119.467zm366.933-162.133c-23.893 0-42.667 18.773-42.667 42.667v119.467c0 23.893 18.773 42.667 42.667 42.667s42.667-18.773 42.667-42.667V196.067c0-23.893-18.774-42.666-42.667-42.666zm25.6 162.133c0 14.507-11.093 25.6-25.6 25.6-14.507 0-25.6-11.093-25.6-25.6V196.067c0-14.507 11.093-25.6 25.6-25.6 14.507 0 25.6 11.093 25.6 25.6v119.467zm-358.4 85.333H153.5v76.8c0 18.773 15.36 34.133 34.133 34.133 18.773 0 34.133-15.36 34.133-34.133v-76.8h68.267v76.8c0 18.773 15.36 34.133 34.133 34.133s34.133-15.36 34.133-34.133v-76.8h34.133V153.401H119.367v247.466zm17.067-230.4h238.933V383.8h-34.133v93.867c0 9.387-7.68 17.067-17.067 17.067s-17.067-7.68-17.067-17.067V383.8H204.7v93.867c0 9.387-7.68 17.067-17.067 17.067s-17.067-7.68-17.067-17.067V383.8h-34.133V170.467z"/><path d="M213.234 68.067c-9.387 0-17.067 7.68-17.067 17.067s7.68 17.067 17.067 17.067 17.067-7.68 17.067-17.067c-.001-9.387-7.681-17.067-17.067-17.067zm85.333 0c-9.387 0-17.067 7.68-17.067 17.067s7.68 17.067 17.067 17.067 17.067-7.68 17.067-17.067-7.68-17.067-17.067-17.067z"/></svg>