<svg 
 xmlns="http://www.w3.org/2000/svg"
 xmlns:xlink="http://www.w3.org/1999/xlink"
 width="41px" height="47px">
<path fill-rule="evenodd"  fill="rgb(255, 255, 255)"
 d="M37.634,14.965 C36.076,14.965 34.801,16.251 34.801,17.825 L34.801,29.269 C34.801,30.843 36.076,32.131 37.634,32.131 C39.192,32.131 40.467,30.843 40.467,29.269 L40.467,17.825 C40.467,16.251 39.192,14.965 37.634,14.965 ZM3.637,14.965 C2.079,14.965 0.804,16.251 0.804,17.825 L0.804,29.269 C0.804,30.843 2.079,32.131 3.637,32.131 C5.195,32.131 6.470,30.843 6.470,29.269 L6.470,17.825 C6.470,16.251 5.195,14.965 3.637,14.965 ZM7.886,33.562 C7.886,35.932 9.789,37.853 12.136,37.853 L13.553,37.853 L13.553,43.575 C13.553,45.149 14.827,46.437 16.386,46.437 C17.944,46.437 19.219,45.149 19.219,43.575 L19.219,37.853 L22.052,37.853 L22.052,43.575 C22.052,45.149 23.327,46.437 24.885,46.437 C26.443,46.437 27.718,45.149 27.718,43.575 L27.718,37.853 L29.135,37.853 C31.482,37.853 33.384,35.932 33.384,33.562 L33.384,17.825 L7.886,17.825 L7.886,33.562 ZM25.885,4.659 L27.678,1.182 C27.768,1.007 27.700,0.790 27.528,0.699 C27.355,0.609 27.140,0.677 27.050,0.852 L25.230,4.382 C23.805,3.826 22.255,3.520 20.635,3.520 C19.015,3.520 17.466,3.826 16.041,4.382 L14.220,0.852 C14.131,0.677 13.916,0.609 13.743,0.700 C13.570,0.791 13.502,1.007 13.592,1.182 L15.385,4.660 C11.373,6.494 8.469,10.363 7.965,14.965 L33.305,14.965 C32.802,10.363 29.897,6.493 25.885,4.659 ZM14.969,12.747 C13.835,12.747 12.915,11.819 12.915,10.673 C12.915,9.527 13.835,8.599 14.969,8.599 C16.104,8.599 17.023,9.527 17.023,10.673 C17.023,11.819 16.104,12.747 14.969,12.747 ZM26.302,12.747 C25.167,12.747 24.247,11.819 24.247,10.673 C24.247,9.527 25.167,8.599 26.302,8.599 C27.436,8.599 28.355,9.527 28.355,10.673 C28.355,11.819 27.436,12.747 26.302,12.747 Z"/>
</svg>