<svg 
 xmlns="http://www.w3.org/2000/svg"
 xmlns:xlink="http://www.w3.org/1999/xlink"
 width="38px" height="46px">
<path fill-rule="evenodd"  fill="rgb(255, 255, 255)"
 d="M31.407,24.526 C31.350,18.734 36.089,15.956 36.300,15.818 C33.638,11.886 29.490,11.348 28.012,11.286 C24.482,10.925 21.124,13.383 19.333,13.383 C17.546,13.383 14.781,11.339 11.854,11.392 C8.006,11.449 4.458,13.650 2.477,17.127 C-1.520,24.127 1.454,34.495 5.350,40.172 C7.254,42.950 9.524,46.071 12.504,45.959 C15.375,45.844 16.460,44.085 19.931,44.085 C23.401,44.085 24.376,45.959 27.414,45.903 C30.503,45.844 32.460,43.070 34.350,40.284 C36.537,37.059 37.437,33.939 37.490,33.779 C37.421,33.747 31.467,31.445 31.407,24.526 ZM25.700,7.527 C27.282,5.591 28.349,2.904 28.058,0.223 C25.779,0.318 23.017,1.755 21.382,3.687 C19.915,5.402 18.631,8.138 18.975,10.764 C21.519,10.965 24.116,9.460 25.700,7.527 Z"/>
</svg>