<svg 
 xmlns="http://www.w3.org/2000/svg"
 xmlns:xlink="http://www.w3.org/1999/xlink"
 width="23px" height="34px">
<path fill-rule="evenodd"  fill="rgb(88, 91, 96)"
 d="M6.819,29.718 C6.819,30.857 5.896,31.780 4.758,31.780 C3.621,31.780 2.698,30.857 2.698,29.718 C2.698,28.580 3.621,27.657 4.758,27.657 C5.896,27.657 6.819,28.580 6.819,29.718 ZM6.819,4.980 C6.819,6.119 5.896,7.041 4.758,7.041 C3.621,7.041 2.698,6.119 2.698,4.980 C2.698,3.842 3.621,2.918 4.758,2.918 C5.896,2.918 6.819,3.842 6.819,4.980 ZM20.558,7.729 C20.558,8.867 19.635,9.790 18.497,9.790 C17.359,9.790 16.436,8.867 16.436,7.729 C16.436,6.591 17.359,5.667 18.497,5.667 C19.635,5.667 20.558,6.591 20.558,7.729 ZM22.619,7.729 C22.619,5.452 20.773,3.606 18.497,3.606 C16.222,3.606 14.375,5.452 14.375,7.729 C14.375,9.254 15.213,10.585 16.436,11.293 C16.393,15.781 14.118,16.727 10.125,17.993 C9.073,18.315 7.914,18.680 6.819,19.218 L6.819,8.545 C8.043,7.836 8.880,6.506 8.880,4.980 C8.880,2.704 7.034,0.857 4.758,0.857 C2.483,0.857 0.637,2.704 0.637,4.980 C0.637,6.506 1.474,7.836 2.698,8.545 L2.698,26.154 C1.474,26.863 0.637,28.193 0.637,29.718 C0.637,31.995 2.483,33.842 4.758,33.842 C7.034,33.842 8.880,31.995 8.880,29.718 C8.880,28.193 8.043,26.863 6.819,26.154 L6.819,25.596 C6.819,23.512 7.936,22.997 11.349,21.923 C14.998,20.764 20.493,19.046 20.558,11.293 C21.782,10.585 22.619,9.254 22.619,7.729 Z"/>
</svg>