<svg 
 xmlns="http://www.w3.org/2000/svg"
 xmlns:xlink="http://www.w3.org/1999/xlink"
 width="36px" height="35px">
<path fill-rule="evenodd"  fill="rgb(88, 91, 96)"
 d="M11.754,24.398 L24.266,12.245 L24.266,24.398 L11.754,24.398 ZM10.808,23.479 L10.808,11.327 L23.320,11.327 L10.808,23.479 ZM35.033,25.052 C35.033,24.685 34.738,24.398 34.360,24.398 L29.649,24.398 L29.649,7.016 L34.843,1.991 C35.096,1.725 35.096,1.316 34.843,1.052 C34.570,0.806 34.149,0.806 33.876,1.052 L28.703,6.097 L10.808,6.097 L10.808,1.521 C10.808,1.154 10.514,0.868 10.135,0.868 L6.098,0.868 C5.719,0.868 5.425,1.154 5.425,1.521 L5.425,6.097 L0.715,6.097 C0.336,6.097 0.042,6.383 0.042,6.750 L0.042,10.672 C0.042,11.040 0.336,11.327 0.715,11.327 L5.425,11.327 L5.425,28.974 C5.425,29.341 5.719,29.628 6.098,29.628 L24.266,29.628 L24.266,34.204 C24.266,34.571 24.561,34.857 24.939,34.857 L28.976,34.857 C29.355,34.857 29.649,34.571 29.649,34.204 L29.649,29.628 L34.360,29.628 C34.738,29.628 35.033,29.341 35.033,28.974 L35.033,25.052 Z"/>
</svg>