<svg 
 xmlns="http://www.w3.org/2000/svg"
 xmlns:xlink="http://www.w3.org/1999/xlink"
 width="39px" height="40px">
<path fill-rule="evenodd"  fill="rgb(88, 91, 96)"
 d="M21.352,35.280 L21.352,17.978 L36.065,12.617 L36.065,27.250 L21.352,35.280 ZM19.881,15.378 L3.834,9.533 L19.881,3.690 L35.927,9.533 L19.881,15.378 ZM39.008,9.580 C39.008,8.338 38.226,7.233 37.076,6.819 L20.892,0.929 C20.570,0.814 20.225,0.746 19.881,0.746 C19.536,0.746 19.191,0.814 18.869,0.929 L2.685,6.819 C1.535,7.233 0.754,8.338 0.754,9.580 L0.754,27.250 C0.754,28.332 1.351,29.322 2.294,29.827 L18.478,38.663 C18.915,38.916 19.398,39.031 19.881,39.031 C20.363,39.031 20.846,38.916 21.283,38.663 L37.467,29.827 C38.410,29.322 39.008,28.332 39.008,27.250 L39.008,9.580 Z"/>
</svg>