<svg 
 xmlns="http://www.w3.org/2000/svg"
 xmlns:xlink="http://www.w3.org/1999/xlink"
 width="34px" height="39px">
<path fill-rule="evenodd"  fill="rgb(88, 91, 96)"
 d="M17.136,17.104 C10.675,17.104 4.192,15.958 0.650,13.497 L0.650,17.104 C0.650,20.093 8.034,22.533 17.136,22.533 C26.238,22.533 33.623,20.093 33.623,17.104 L33.623,13.497 C30.081,15.958 23.598,17.104 17.136,17.104 ZM17.136,33.392 C10.675,33.392 4.192,32.247 0.650,29.787 L0.650,33.392 C0.650,36.383 8.034,38.822 17.136,38.822 C26.238,38.822 33.623,36.383 33.623,33.392 L33.623,29.787 C30.081,32.247 23.598,33.392 17.136,33.392 ZM17.136,25.248 C10.675,25.248 4.192,24.102 0.650,21.642 L0.650,25.248 C0.650,28.238 8.034,30.677 17.136,30.677 C26.238,30.677 33.623,28.238 33.623,25.248 L33.623,21.642 C30.081,24.102 23.598,25.248 17.136,25.248 ZM17.136,0.814 C8.034,0.814 0.650,3.253 0.650,6.243 L0.650,8.959 C0.650,11.949 8.034,14.388 17.136,14.388 C26.238,14.388 33.623,11.949 33.623,8.959 L33.623,6.243 C33.623,3.253 26.238,0.814 17.136,0.814 Z"/>
</svg>