<svg 
 xmlns="http://www.w3.org/2000/svg"
 xmlns:xlink="http://www.w3.org/1999/xlink"
 width="21px" height="21px">
<path fill-rule="evenodd"  fill="rgb(208, 209, 210)"
 d="M9.564,7.669 C8.086,5.042 6.506,2.899 6.390,2.743 C4.006,3.869 2.227,6.066 1.672,8.712 C1.896,8.716 5.459,8.759 9.564,7.669 ZM10.629,10.540 C10.741,10.505 10.853,10.471 10.966,10.439 C10.752,9.952 10.518,9.466 10.272,8.986 C5.871,10.303 1.646,10.208 1.496,10.204 C1.493,10.293 1.489,10.383 1.489,10.475 C1.489,12.673 2.320,14.677 3.682,16.191 C3.680,16.188 3.676,16.183 3.676,16.183 C3.676,16.183 6.016,12.033 10.629,10.540 ZM4.783,17.214 L4.785,17.211 C4.721,17.161 4.653,17.115 4.591,17.064 C4.705,17.154 4.783,17.214 4.783,17.214 ZM7.990,2.175 C7.982,2.176 7.975,2.179 7.967,2.180 C7.980,2.177 7.988,2.176 7.988,2.176 L7.990,2.175 ZM15.683,4.059 C14.178,2.734 12.202,1.926 10.038,1.926 C9.343,1.926 8.669,2.011 8.023,2.167 C8.153,2.340 9.758,4.472 11.219,7.154 C14.442,5.945 15.661,4.095 15.683,4.059 ZM10.038,20.485 C4.509,20.485 0.028,16.002 0.028,10.475 C0.028,4.947 4.509,0.464 10.038,0.464 C15.566,0.464 20.047,4.947 20.047,10.475 C20.047,16.002 15.566,20.485 10.038,20.485 ZM11.492,11.874 C6.475,13.623 4.818,17.139 4.785,17.211 C6.235,18.343 8.055,19.024 10.038,19.024 C11.222,19.024 12.349,18.783 13.375,18.346 C13.248,17.597 12.751,14.979 11.549,11.855 C11.530,11.862 11.511,11.866 11.492,11.874 ZM11.877,8.428 C12.076,8.836 12.267,9.250 12.445,9.668 C12.508,9.815 12.569,9.963 12.629,10.110 C15.582,9.739 18.488,10.368 18.583,10.390 C18.563,8.360 17.839,6.500 16.639,5.044 C16.622,5.071 15.251,7.051 11.877,8.428 ZM13.150,11.459 C14.273,14.544 14.728,17.054 14.814,17.564 C16.734,16.269 18.097,14.215 18.477,11.832 C18.307,11.776 15.914,11.017 13.150,11.459 Z"/>
</svg>