<svg 
 xmlns="http://www.w3.org/2000/svg"
 xmlns:xlink="http://www.w3.org/1999/xlink"
 width="33px" height="38px">
<path fill-rule="evenodd"  fill="rgb(255, 51, 102)"
 d="M31.545,10.091 L22.778,1.436 C22.563,1.224 22.305,1.033 22.004,0.842 L22.004,10.855 L32.147,10.855 C31.953,10.558 31.760,10.304 31.545,10.091 ZM21.317,13.570 C20.178,13.570 19.254,12.659 19.254,11.534 L19.254,-0.006 L2.063,-0.006 C0.924,-0.006 -0.000,0.905 -0.000,2.030 L-0.000,35.973 C-0.000,37.097 0.924,38.009 2.063,38.009 L30.943,38.009 C32.082,38.009 33.006,37.097 33.006,35.973 L33.006,13.570 L21.317,13.570 ZM24.755,29.184 C24.755,29.566 24.454,29.863 24.067,29.863 L8.939,29.863 C8.552,29.863 8.252,29.566 8.252,29.184 L8.252,27.826 C8.252,27.444 8.552,27.148 8.939,27.148 L24.067,27.148 C24.454,27.148 24.755,27.444 24.755,27.826 L24.755,29.184 ZM24.755,23.753 C24.755,24.135 24.454,24.432 24.067,24.432 L8.939,24.432 C8.552,24.432 8.252,24.135 8.252,23.753 L8.252,22.395 C8.252,22.013 8.552,21.717 8.939,21.717 L24.067,21.717 C24.454,21.717 24.755,22.013 24.755,22.395 L24.755,23.753 ZM24.755,18.323 C24.755,18.705 24.454,19.001 24.067,19.001 L8.939,19.001 C8.552,19.001 8.252,18.705 8.252,18.323 L8.252,16.965 C8.252,16.583 8.552,16.286 8.939,16.286 L24.067,16.286 C24.454,16.286 24.755,16.583 24.755,16.965 L24.755,18.323 Z"/>
</svg>