<svg 
 xmlns="http://www.w3.org/2000/svg"
 xmlns:xlink="http://www.w3.org/1999/xlink"
 width="20px" height="21px">
<path fill-rule="evenodd"  fill="rgb(208, 209, 210)"
 d="M19.896,11.312 L17.369,11.312 L17.369,13.855 C17.369,13.912 17.322,13.959 17.265,13.959 L16.178,13.959 C16.120,13.959 16.074,13.912 16.074,13.855 L16.074,11.312 L13.559,11.312 C13.502,11.312 13.455,11.266 13.455,11.208 L13.455,10.103 C13.455,10.046 13.502,9.998 13.559,9.998 L16.074,9.998 L16.074,7.472 C16.074,7.414 16.120,7.368 16.178,7.368 L17.265,7.368 C17.322,7.368 17.369,7.414 17.369,7.472 L17.369,9.998 L19.896,9.998 C19.954,9.998 20.000,10.045 20.000,10.103 L20.000,11.207 C20.000,11.265 19.953,11.312 19.896,11.312 ZM11.858,1.633 C11.842,1.643 11.822,1.649 11.803,1.649 L10.211,1.649 C10.814,2.149 12.067,3.188 12.067,5.201 C12.067,7.203 10.897,8.128 9.864,8.944 L9.830,8.978 C9.505,9.303 9.137,9.670 9.137,10.227 C9.137,10.793 9.505,11.099 9.801,11.345 L10.757,12.091 C11.891,13.050 12.959,13.952 12.959,15.779 C12.959,18.249 10.594,20.751 6.074,20.751 C2.187,20.751 0.447,18.861 0.447,16.987 C0.447,16.518 0.593,14.895 2.463,13.777 C4.047,12.802 6.216,12.653 7.381,12.572 L7.462,12.567 L7.416,12.507 C7.053,12.042 6.677,11.560 6.677,10.780 C6.677,10.378 6.785,10.120 6.898,9.847 L6.937,9.753 C6.672,9.778 6.372,9.805 6.101,9.805 C3.279,9.805 1.757,7.676 1.757,5.673 C1.757,4.373 2.382,3.056 3.429,2.150 C4.761,1.046 6.240,0.576 8.377,0.576 L13.174,0.576 C13.220,0.576 13.261,0.606 13.273,0.651 C13.286,0.696 13.268,0.743 13.229,0.768 L11.858,1.633 ZM5.000,13.728 C3.508,14.270 2.751,15.181 2.751,16.436 C2.751,18.358 4.602,19.647 7.357,19.647 C9.731,19.647 11.205,18.560 11.206,16.807 C11.206,15.429 10.279,14.707 8.351,13.331 C8.143,13.305 8.011,13.305 7.750,13.305 C7.735,13.305 6.194,13.325 5.000,13.728 ZM6.468,1.570 C5.775,1.570 5.055,1.911 4.635,2.438 C4.248,2.919 4.060,3.556 4.060,4.387 C4.060,6.019 5.019,9.068 7.331,9.068 C7.956,9.068 8.671,8.772 9.111,8.331 C9.765,7.672 9.765,6.723 9.765,6.411 C9.765,4.432 8.591,1.570 6.468,1.570 Z"/>
</svg>