<svg 
 xmlns="http://www.w3.org/2000/svg"
 xmlns:xlink="http://www.w3.org/1999/xlink"
 width="25px" height="25px">
<path fill-rule="evenodd"  fill="rgb(255, 255, 255)"
 d="M12.500,24.997 C5.596,24.997 0.000,19.404 0.000,12.502 C0.000,5.597 5.596,0.002 12.500,0.002 C19.404,0.002 25.000,5.597 25.000,12.502 C25.000,19.404 19.404,24.997 12.500,24.997 ZM12.500,2.088 C6.750,2.088 2.088,6.753 2.088,12.502 C2.088,18.252 6.750,22.911 12.500,22.911 C18.249,22.911 22.912,18.252 22.910,12.502 C22.910,6.752 18.249,2.088 12.500,2.088 ZM11.432,16.790 C11.322,16.872 11.193,16.913 11.064,16.913 C10.966,16.913 10.869,16.891 10.780,16.845 C10.570,16.738 10.438,16.523 10.438,16.287 L10.438,8.742 C10.438,8.508 10.570,8.292 10.780,8.186 C10.989,8.078 11.242,8.099 11.432,8.237 L16.623,12.011 C16.785,12.129 16.884,12.314 16.882,12.516 C16.882,12.714 16.787,12.899 16.623,13.021 L11.432,16.790 Z"/>
</svg>