<svg 
 xmlns="http://www.w3.org/2000/svg"
 xmlns:xlink="http://www.w3.org/1999/xlink"
 width="21px" height="21px">
<path fill-rule="evenodd"  fill="rgb(208, 209, 210)"
 d="M3.296,0.704 L18.295,0.704 C19.719,0.704 20.884,1.759 20.884,3.295 L20.884,18.293 C20.884,19.827 19.719,20.882 18.295,20.882 L3.296,20.882 C1.872,20.882 0.707,19.827 0.707,18.293 L0.707,3.295 C0.707,1.759 1.872,0.704 3.296,0.704 L3.296,0.704 ZM15.405,2.946 C14.905,2.946 14.497,3.355 14.497,3.855 L14.497,6.029 C14.497,6.528 14.905,6.937 15.405,6.937 L17.686,6.937 C18.185,6.937 18.594,6.528 18.594,6.029 L18.594,3.855 C18.594,3.355 18.185,2.946 17.686,2.946 L15.405,2.946 L15.405,2.946 ZM18.604,9.237 L16.828,9.237 C16.996,9.787 17.087,10.368 17.087,10.968 C17.087,14.325 14.279,17.045 10.815,17.045 C7.351,17.045 4.543,14.325 4.543,10.968 C4.543,10.367 4.634,9.787 4.802,9.237 L2.949,9.237 L2.949,17.761 C2.949,18.202 3.310,18.564 3.751,18.564 L17.802,18.564 C18.243,18.564 18.604,18.202 18.604,17.761 L18.604,9.237 L18.604,9.237 ZM10.814,6.822 C8.577,6.822 6.762,8.581 6.762,10.750 C6.762,12.919 8.577,14.677 10.814,14.677 C13.052,14.677 14.867,12.919 14.867,10.750 C14.867,8.581 13.053,6.822 10.814,6.822 Z"/>
</svg>