<svg 
 xmlns="http://www.w3.org/2000/svg"
 xmlns:xlink="http://www.w3.org/1999/xlink"
 width="19px" height="19px">
<path fill-rule="evenodd"  fill="rgb(208, 209, 210)"
 d="M18.726,11.530 L18.726,18.451 L14.713,18.451 L14.713,11.994 C14.713,10.372 14.133,9.265 12.681,9.265 C11.572,9.265 10.912,10.010 10.622,10.732 C10.516,10.991 10.489,11.349 10.489,11.711 L10.489,18.451 L6.475,18.451 C6.475,18.451 6.529,7.515 6.475,6.383 L10.488,6.383 L10.488,8.093 C10.480,8.106 10.470,8.118 10.462,8.132 L10.488,8.132 L10.488,8.093 C11.022,7.271 11.974,6.098 14.105,6.098 C16.746,6.098 18.726,7.824 18.726,11.530 ZM2.277,0.562 C0.904,0.562 0.006,1.464 0.006,2.648 C0.006,3.807 0.878,4.735 2.224,4.735 L2.250,4.735 C3.650,4.735 4.520,3.808 4.520,2.648 C4.494,1.464 3.650,0.562 2.277,0.562 ZM0.244,18.451 L4.256,18.451 L4.256,6.383 L0.244,6.383 L0.244,18.451 Z"/>
</svg>