<svg 
 xmlns="http://www.w3.org/2000/svg"
 xmlns:xlink="http://www.w3.org/1999/xlink"
 width="135px" height="33px">
<path fill-rule="evenodd"  fill="rgb(255, 255, 255)"
 d="M133.564,31.472 C133.051,31.984 132.436,32.241 131.718,32.241 C131.000,32.241 130.385,31.984 129.872,31.472 C129.374,30.974 129.125,30.366 129.125,29.648 L129.125,12.553 L120.930,26.088 L120.930,26.110 L120.908,26.132 L120.886,26.155 L120.864,26.176 C120.820,26.250 120.790,26.301 120.776,26.330 L120.710,26.418 C120.651,26.477 120.614,26.514 120.600,26.528 C120.585,26.543 120.556,26.572 120.512,26.615 C120.468,26.660 120.439,26.689 120.424,26.704 C120.395,26.733 120.351,26.769 120.292,26.814 L120.226,26.879 C120.182,26.909 120.131,26.938 120.073,26.968 C120.073,26.982 120.065,26.989 120.051,26.989 L120.029,27.011 L120.007,27.011 C119.977,27.041 119.926,27.070 119.853,27.099 C119.794,27.129 119.772,27.143 119.787,27.143 C119.772,27.143 119.728,27.158 119.655,27.187 C119.318,27.334 118.966,27.399 118.600,27.385 L118.556,27.385 C118.586,27.385 118.556,27.377 118.469,27.363 C118.278,27.348 118.088,27.312 117.897,27.253 C117.824,27.238 117.795,27.231 117.809,27.231 C117.839,27.245 117.809,27.238 117.722,27.209 C117.648,27.180 117.597,27.158 117.568,27.143 C117.582,27.143 117.568,27.129 117.524,27.099 C117.450,27.070 117.392,27.041 117.348,27.011 L117.326,27.011 L117.304,26.989 L117.282,26.968 C117.223,26.938 117.172,26.901 117.128,26.857 C117.128,26.872 117.106,26.857 117.062,26.814 C117.004,26.769 116.960,26.733 116.931,26.704 C116.916,26.689 116.887,26.660 116.843,26.615 C116.799,26.572 116.769,26.543 116.755,26.528 C116.740,26.499 116.703,26.462 116.645,26.418 C116.615,26.374 116.601,26.345 116.601,26.330 C116.571,26.301 116.535,26.250 116.491,26.176 L116.469,26.155 C116.469,26.140 116.462,26.132 116.447,26.132 L116.447,26.110 C116.447,26.096 116.440,26.088 116.425,26.088 L108.251,12.553 L108.251,29.648 C108.251,30.366 107.995,30.974 107.482,31.472 C106.969,31.984 106.354,32.241 105.637,32.241 C104.919,32.241 104.311,31.984 103.813,31.472 C103.300,30.974 103.044,30.366 103.044,29.648 L103.044,3.237 C103.044,2.651 103.220,2.131 103.571,1.676 C103.923,1.208 104.384,0.893 104.955,0.732 C105.512,0.586 106.061,0.615 106.603,0.820 C107.145,1.040 107.570,1.399 107.878,1.897 L118.688,19.761 L129.499,1.897 C129.792,1.399 130.209,1.040 130.751,0.820 C131.293,0.615 131.564,0.512 131.564,0.512 C131.564,0.512 131.850,0.586 132.421,0.732 C132.978,0.893 133.432,1.208 133.784,1.676 C134.135,2.131 134.311,2.651 134.311,3.237 L134.311,29.648 C134.311,30.366 134.062,30.974 133.564,31.472 ZM80.873,32.241 C76.523,32.241 72.809,30.695 69.733,27.604 C66.642,24.529 65.097,20.815 65.097,16.464 C65.097,12.114 66.642,8.393 69.733,5.302 C72.809,2.226 76.523,0.688 80.873,0.688 C85.224,0.688 88.945,2.226 92.035,5.302 C95.112,8.393 96.650,12.114 96.650,16.464 C96.650,20.815 95.112,24.529 92.035,27.604 C88.945,30.695 85.224,32.241 80.873,32.241 ZM88.366,8.972 C86.286,6.906 83.788,5.873 80.873,5.873 C77.958,5.873 75.468,6.906 73.403,8.972 C71.322,11.052 70.283,13.550 70.283,16.464 C70.283,19.379 71.322,21.870 73.403,23.935 C75.468,26.015 77.958,27.055 80.873,27.055 C83.788,27.055 86.286,26.015 88.366,23.935 C90.431,21.870 91.464,19.379 91.464,16.464 C91.464,13.550 90.431,11.052 88.366,8.972 ZM44.750,32.241 C40.400,32.241 36.686,30.695 33.610,27.604 C30.519,24.529 28.974,20.815 28.974,16.464 C28.974,12.114 30.519,8.393 33.610,5.302 C36.686,2.226 40.400,0.688 44.750,0.688 C49.101,0.688 52.822,2.226 55.912,5.302 C58.989,8.393 60.527,12.114 60.527,16.464 C60.527,20.815 58.989,24.529 55.912,27.604 C52.822,30.695 49.101,32.241 44.750,32.241 ZM52.243,8.972 C50.163,6.906 47.665,5.873 44.750,5.873 C41.835,5.873 39.345,6.906 37.280,8.972 C35.199,11.052 34.160,13.550 34.160,16.464 C34.160,19.379 35.199,21.870 37.280,23.935 C39.345,26.015 41.835,27.055 44.750,27.055 C47.665,27.055 50.163,26.015 52.243,23.935 C54.308,21.870 55.341,19.379 55.341,16.464 C55.341,13.550 54.308,11.052 52.243,8.972 ZM8.012,27.055 L22.778,27.055 C23.495,27.055 24.103,27.305 24.601,27.803 C25.114,28.315 25.370,28.930 25.370,29.648 C25.370,30.366 25.114,30.974 24.601,31.472 C24.103,31.984 23.495,32.241 22.778,32.241 L2.695,32.241 C1.610,32.241 0.827,31.757 0.344,30.791 C-0.125,29.809 -0.023,28.893 0.651,28.044 L17.988,5.895 L3.244,5.895 C2.526,5.895 1.911,5.647 1.398,5.149 C0.885,4.635 0.629,4.021 0.629,3.302 C0.629,2.585 0.885,1.977 1.398,1.479 C1.911,0.966 2.526,0.710 3.244,0.710 L23.327,0.710 C24.396,0.710 25.173,1.201 25.656,2.182 C26.125,3.148 26.030,4.057 25.370,4.907 L8.012,27.055 Z"/>
</svg>