<svg 
 xmlns="http://www.w3.org/2000/svg"
 xmlns:xlink="http://www.w3.org/1999/xlink"
 width="42px" height="46px">
<path fill-rule="evenodd"  fill="rgb(255, 255, 255)"
 d="M39.000,46.000 C37.343,46.000 36.000,44.657 36.000,43.000 L36.000,3.000 C36.000,1.343 37.343,-0.000 39.000,-0.000 C40.657,-0.000 42.000,1.343 42.000,3.000 L42.000,43.000 C42.000,44.657 40.657,46.000 39.000,46.000 ZM30.000,39.000 C28.343,39.000 27.000,37.657 27.000,36.000 L27.000,10.000 C27.000,8.343 28.343,7.000 30.000,7.000 C31.657,7.000 33.000,8.343 33.000,10.000 L33.000,36.000 C33.000,37.657 31.657,39.000 30.000,39.000 ZM21.000,35.000 C19.343,35.000 18.000,33.657 18.000,32.000 L18.000,15.000 C18.000,13.343 19.343,12.000 21.000,12.000 C22.657,12.000 24.000,13.343 24.000,15.000 L24.000,32.000 C24.000,33.657 22.657,35.000 21.000,35.000 ZM12.000,42.000 C10.343,42.000 9.000,40.657 9.000,39.000 L9.000,8.000 C9.000,6.343 10.343,5.000 12.000,5.000 C13.657,5.000 15.000,6.343 15.000,8.000 L15.000,39.000 C15.000,40.657 13.657,42.000 12.000,42.000 ZM3.000,38.000 C1.343,38.000 0.000,36.657 0.000,35.000 L0.000,12.000 C0.000,10.343 1.343,9.000 3.000,9.000 C4.657,9.000 6.000,10.343 6.000,12.000 L6.000,35.000 C6.000,36.657 4.657,38.000 3.000,38.000 Z"/>
</svg>