<svg 
 xmlns="http://www.w3.org/2000/svg"
 xmlns:xlink="http://www.w3.org/1999/xlink"
 width="35px" height="35px">
<path fill-rule="evenodd"  fill="rgb(88, 91, 96)"
 d="M24.190,12.916 L21.969,10.694 L28.053,4.610 L30.275,6.832 L24.190,12.916 ZM33.473,6.832 C33.473,6.479 33.348,6.146 33.099,5.897 L28.987,1.786 C28.738,1.536 28.406,1.412 28.053,1.412 C27.700,1.412 27.368,1.536 27.118,1.786 L0.414,28.491 C0.165,28.740 0.040,29.072 0.040,29.426 C0.040,29.778 0.165,30.111 0.414,30.361 L4.525,34.471 C4.775,34.721 5.107,34.846 5.460,34.846 C5.813,34.846 6.145,34.721 6.394,34.471 L33.099,7.766 C33.348,7.517 33.473,7.185 33.473,6.832 ZM5.418,2.886 L4.795,0.851 L4.172,2.886 L2.137,3.509 L4.172,4.133 L4.795,6.168 L5.418,4.133 L7.453,3.509 L5.418,2.886 ZM12.686,6.251 L11.440,2.180 L10.194,6.251 L6.124,7.497 L10.194,8.742 L11.440,12.812 L12.686,8.742 L16.756,7.497 L12.686,6.251 ZM31.998,16.177 L31.375,14.142 L30.752,16.177 L28.717,16.800 L30.752,17.423 L31.375,19.458 L31.998,17.423 L34.033,16.800 L31.998,16.177 ZM18.708,2.886 L18.085,0.851 L17.462,2.886 L15.427,3.509 L17.462,4.133 L18.085,6.168 L18.708,4.133 L20.743,3.509 L18.708,2.886 Z"/>
</svg>