<svg 
 xmlns="http://www.w3.org/2000/svg"
 xmlns:xlink="http://www.w3.org/1999/xlink"
 width="27px" height="21px">
<path fill-rule="evenodd"  opacity="0.149" fill="rgb(0, 0, 0)"
 d="M25.951,20.135 C25.491,20.594 24.939,20.825 24.294,20.825 L2.707,20.825 C2.061,20.825 1.509,20.594 1.049,20.135 C0.590,19.675 0.360,19.123 0.360,18.478 L0.360,6.834 C0.790,7.313 1.284,7.738 1.841,8.110 C5.380,10.514 7.810,12.201 9.130,13.169 C9.687,13.580 10.139,13.900 10.486,14.130 C10.833,14.360 11.295,14.593 11.872,14.833 C12.449,15.074 12.987,15.193 13.485,15.193 L13.500,15.193 L13.515,15.193 C14.014,15.193 14.551,15.074 15.128,14.833 C15.705,14.593 16.167,14.360 16.514,14.130 C16.861,13.900 17.313,13.580 17.870,13.169 C19.532,11.966 21.967,10.280 25.173,8.110 C25.731,7.729 26.220,7.303 26.640,6.834 L26.640,18.478 C26.640,19.123 26.410,19.675 25.951,20.135 ZM24.132,6.540 C20.456,9.092 18.168,10.681 17.269,11.307 C17.171,11.375 16.963,11.524 16.646,11.753 C16.328,11.984 16.064,12.169 15.854,12.311 C15.644,12.453 15.389,12.611 15.091,12.787 C14.793,12.963 14.512,13.095 14.248,13.184 C13.984,13.271 13.740,13.315 13.515,13.315 L13.500,13.315 L13.485,13.315 C13.260,13.315 13.016,13.271 12.752,13.184 C12.488,13.095 12.207,12.963 11.909,12.787 C11.610,12.611 11.356,12.453 11.146,12.311 C10.936,12.169 10.672,11.984 10.354,11.753 C10.036,11.524 9.829,11.375 9.731,11.307 C8.841,10.681 7.561,9.789 5.889,8.631 C4.217,7.472 3.215,6.775 2.882,6.540 C2.276,6.130 1.704,5.565 1.167,4.846 C0.629,4.128 0.360,3.461 0.360,2.845 C0.360,2.082 0.563,1.447 0.969,0.938 C1.374,0.430 1.954,0.175 2.706,0.175 L24.294,0.175 C24.929,0.175 25.479,0.406 25.943,0.865 C26.408,1.325 26.640,1.877 26.640,2.522 C26.640,3.295 26.401,4.033 25.921,4.736 C25.442,5.441 24.846,6.042 24.132,6.540 Z"/>
</svg>