<svg 
 xmlns="http://www.w3.org/2000/svg"
 xmlns:xlink="http://www.w3.org/1999/xlink"
 width="16px" height="21px">
<path fill-rule="evenodd"  fill="rgb(208, 209, 210)"
 d="M3.050,12.162 C4.019,10.484 2.738,10.117 2.537,8.902 C1.715,3.936 8.396,0.545 11.895,4.015 C14.316,6.417 12.721,13.806 8.818,13.037 C5.080,12.304 10.649,6.423 7.666,5.269 C5.241,4.330 3.953,8.138 5.103,10.031 C4.428,13.286 2.976,16.351 3.564,20.432 C5.470,19.080 6.114,16.491 6.640,13.789 C7.599,14.359 8.111,14.950 9.333,15.043 C13.838,15.383 16.356,10.645 15.739,6.271 C15.193,2.394 11.239,0.420 7.023,0.882 C3.689,1.248 0.366,3.883 0.228,7.650 C0.144,9.950 0.812,11.675 3.050,12.162 Z"/>
</svg>