<svg 
 xmlns="http://www.w3.org/2000/svg"
 xmlns:xlink="http://www.w3.org/1999/xlink"
 width="60px" height="60px">
<path fill-rule="evenodd"  fill="rgb(255, 255, 255)"
 d="M30.001,60.005 C13.424,60.005 -0.010,46.576 -0.010,30.005 C-0.010,13.428 13.424,-0.006 30.001,-0.006 C46.575,-0.006 60.010,13.428 60.010,30.005 C60.010,46.576 46.575,60.005 30.001,60.005 ZM30.001,5.003 C16.195,5.003 5.003,16.204 5.003,30.005 C5.003,43.812 16.195,54.997 30.001,54.997 C43.803,54.997 54.997,43.812 54.993,30.005 C54.993,16.202 43.803,5.003 30.001,5.003 ZM39.899,31.251 L27.437,40.303 C27.172,40.496 26.861,40.596 26.553,40.596 C26.318,40.596 26.084,40.541 25.870,40.431 C25.365,40.178 25.049,39.658 25.049,39.093 L25.049,20.978 C25.049,20.418 25.365,19.899 25.870,19.643 C26.372,19.386 26.979,19.435 27.437,19.766 L39.899,28.826 C40.287,29.110 40.525,29.556 40.521,30.039 C40.521,30.514 40.293,30.960 39.899,31.251 Z"/>
</svg>