<svg 
 xmlns="http://www.w3.org/2000/svg"
 xmlns:xlink="http://www.w3.org/1999/xlink"
 width="32px" height="38px">
<path fill-rule="evenodd"  fill="rgb(255, 51, 102)"
 d="M27.209,20.584 C27.209,24.172 24.006,27.412 21.329,29.491 C19.328,31.050 17.276,32.212 16.001,32.881 L16.001,4.749 L27.209,4.749 L27.209,20.584 ZM32.013,1.582 C32.013,0.717 31.287,-0.002 30.411,-0.002 L1.590,-0.002 C0.714,-0.002 -0.011,0.717 -0.011,1.582 L-0.011,20.584 C-0.011,31.000 14.725,37.582 15.350,37.854 C15.550,37.953 15.775,38.002 16.001,38.002 C16.226,38.002 16.451,37.953 16.651,37.854 C17.276,37.582 32.013,31.000 32.013,20.584 L32.013,1.582 Z"/>
</svg>