<svg 
 xmlns="http://www.w3.org/2000/svg"
 xmlns:xlink="http://www.w3.org/1999/xlink">
<symbol id="android" viewBox="0 0 41 47">
<path
 d="M37.634,14.965 C36.076,14.965 34.801,16.251 34.801,17.825 L34.801,29.269 C34.801,30.843 36.076,32.131 37.634,32.131 C39.192,32.131 40.467,30.843 40.467,29.269 L40.467,17.825 C40.467,16.251 39.192,14.965 37.634,14.965 ZM3.637,14.965 C2.079,14.965 0.804,16.251 0.804,17.825 L0.804,29.269 C0.804,30.843 2.079,32.131 3.637,32.131 C5.195,32.131 6.470,30.843 6.470,29.269 L6.470,17.825 C6.470,16.251 5.195,14.965 3.637,14.965 ZM7.886,33.562 C7.886,35.932 9.789,37.853 12.136,37.853 L13.553,37.853 L13.553,43.575 C13.553,45.149 14.827,46.437 16.386,46.437 C17.944,46.437 19.219,45.149 19.219,43.575 L19.219,37.853 L22.052,37.853 L22.052,43.575 C22.052,45.149 23.327,46.437 24.885,46.437 C26.443,46.437 27.718,45.149 27.718,43.575 L27.718,37.853 L29.135,37.853 C31.482,37.853 33.384,35.932 33.384,33.562 L33.384,17.825 L7.886,17.825 L7.886,33.562 ZM25.885,4.659 L27.678,1.182 C27.768,1.007 27.700,0.790 27.528,0.699 C27.355,0.609 27.140,0.677 27.050,0.852 L25.230,4.382 C23.805,3.826 22.255,3.520 20.635,3.520 C19.015,3.520 17.466,3.826 16.041,4.382 L14.220,0.852 C14.131,0.677 13.916,0.609 13.743,0.700 C13.570,0.791 13.502,1.007 13.592,1.182 L15.385,4.660 C11.373,6.494 8.469,10.363 7.965,14.965 L33.305,14.965 C32.802,10.363 29.897,6.493 25.885,4.659 ZM14.969,12.747 C13.835,12.747 12.915,11.819 12.915,10.673 C12.915,9.527 13.835,8.599 14.969,8.599 C16.104,8.599 17.023,9.527 17.023,10.673 C17.023,11.819 16.104,12.747 14.969,12.747 ZM26.302,12.747 C25.167,12.747 24.247,11.819 24.247,10.673 C24.247,9.527 25.167,8.599 26.302,8.599 C27.436,8.599 28.355,9.527 28.355,10.673 C28.355,11.819 27.436,12.747 26.302,12.747 Z"/>
</symbol>
<symbol id="play" viewBox="0 0 25 25">
<path
 d="M12.500,24.997 C5.596,24.997 0.000,19.404 0.000,12.502 C0.000,5.597 5.596,0.002 12.500,0.002 C19.404,0.002 25.000,5.597 25.000,12.502 C25.000,19.404 19.404,24.997 12.500,24.997 ZM12.500,2.088 C6.750,2.088 2.088,6.753 2.088,12.502 C2.088,18.252 6.750,22.911 12.500,22.911 C18.249,22.911 22.912,18.252 22.910,12.502 C22.910,6.752 18.249,2.088 12.500,2.088 ZM11.432,16.790 C11.322,16.872 11.193,16.913 11.064,16.913 C10.966,16.913 10.869,16.891 10.780,16.845 C10.570,16.738 10.438,16.523 10.438,16.287 L10.438,8.742 C10.438,8.508 10.570,8.292 10.780,8.186 C10.989,8.078 11.242,8.099 11.432,8.237 L16.623,12.011 C16.785,12.129 16.884,12.314 16.882,12.516 C16.882,12.714 16.787,12.899 16.623,13.021 L11.432,16.790 Z"/>
</symbol>
<symbol id="crop" viewBox="0 0 36 35">
<path
 d="M11.754,24.398 L24.266,12.245 L24.266,24.398 L11.754,24.398 ZM10.808,23.479 L10.808,11.327 L23.320,11.327 L10.808,23.479 ZM35.033,25.052 C35.033,24.685 34.738,24.398 34.360,24.398 L29.649,24.398 L29.649,7.016 L34.843,1.991 C35.096,1.725 35.096,1.316 34.843,1.052 C34.570,0.806 34.149,0.806 33.876,1.052 L28.703,6.097 L10.808,6.097 L10.808,1.521 C10.808,1.154 10.514,0.868 10.135,0.868 L6.098,0.868 C5.719,0.868 5.425,1.154 5.425,1.521 L5.425,6.097 L0.715,6.097 C0.336,6.097 0.042,6.383 0.042,6.750 L0.042,10.672 C0.042,11.040 0.336,11.327 0.715,11.327 L5.425,11.327 L5.425,28.974 C5.425,29.341 5.719,29.628 6.098,29.628 L24.266,29.628 L24.266,34.204 C24.266,34.571 24.561,34.857 24.939,34.857 L28.976,34.857 C29.355,34.857 29.649,34.571 29.649,34.204 L29.649,29.628 L34.360,29.628 C34.738,29.628 35.033,29.341 35.033,28.974 L35.033,25.052 Z"/>
</symbol>
<symbol id="cube" viewBox="0 0 39 40">
<path
 d="M21.352,35.280 L21.352,17.978 L36.065,12.617 L36.065,27.250 L21.352,35.280 ZM19.881,15.378 L3.834,9.533 L19.881,3.690 L35.927,9.533 L19.881,15.378 ZM39.008,9.580 C39.008,8.338 38.226,7.233 37.076,6.819 L20.892,0.929 C20.570,0.814 20.225,0.746 19.881,0.746 C19.536,0.746 19.191,0.814 18.869,0.929 L2.685,6.819 C1.535,7.233 0.754,8.338 0.754,9.580 L0.754,27.250 C0.754,28.332 1.351,29.322 2.294,29.827 L18.478,38.663 C18.915,38.916 19.398,39.031 19.881,39.031 C20.363,39.031 20.846,38.916 21.283,38.663 L37.467,29.827 C38.410,29.322 39.008,28.332 39.008,27.250 L39.008,9.580 Z"/>
</symbol>
<symbol id="magic" viewBox="0 0 35 35">
<path
 d="M24.190,12.916 L21.969,10.694 L28.053,4.610 L30.275,6.832 L24.190,12.916 ZM33.473,6.832 C33.473,6.479 33.348,6.146 33.099,5.897 L28.987,1.786 C28.738,1.536 28.406,1.412 28.053,1.412 C27.700,1.412 27.368,1.536 27.118,1.786 L0.414,28.491 C0.165,28.740 0.040,29.072 0.040,29.426 C0.040,29.778 0.165,30.111 0.414,30.361 L4.525,34.471 C4.775,34.721 5.107,34.846 5.460,34.846 C5.813,34.846 6.145,34.721 6.394,34.471 L33.099,7.766 C33.348,7.517 33.473,7.185 33.473,6.832 ZM5.418,2.886 L4.795,0.851 L4.172,2.886 L2.137,3.509 L4.172,4.133 L4.795,6.168 L5.418,4.133 L7.453,3.509 L5.418,2.886 ZM12.686,6.251 L11.440,2.180 L10.194,6.251 L6.124,7.497 L10.194,8.742 L11.440,12.812 L12.686,8.742 L16.756,7.497 L12.686,6.251 ZM31.998,16.177 L31.375,14.142 L30.752,16.177 L28.717,16.800 L30.752,17.423 L31.375,19.458 L31.998,17.423 L34.033,16.800 L31.998,16.177 ZM18.708,2.886 L18.085,0.851 L17.462,2.886 L15.427,3.509 L17.462,4.133 L18.085,6.168 L18.708,4.133 L20.743,3.509 L18.708,2.886 Z"/>
</symbol>
<symbol id="code-fork" viewBox="0 0 23 34">
<path
 d="M6.819,29.718 C6.819,30.857 5.896,31.780 4.758,31.780 C3.621,31.780 2.698,30.857 2.698,29.718 C2.698,28.580 3.621,27.657 4.758,27.657 C5.896,27.657 6.819,28.580 6.819,29.718 ZM6.819,4.980 C6.819,6.119 5.896,7.041 4.758,7.041 C3.621,7.041 2.698,6.119 2.698,4.980 C2.698,3.842 3.621,2.918 4.758,2.918 C5.896,2.918 6.819,3.842 6.819,4.980 ZM20.558,7.729 C20.558,8.867 19.635,9.790 18.497,9.790 C17.359,9.790 16.436,8.867 16.436,7.729 C16.436,6.591 17.359,5.667 18.497,5.667 C19.635,5.667 20.558,6.591 20.558,7.729 ZM22.619,7.729 C22.619,5.452 20.773,3.606 18.497,3.606 C16.222,3.606 14.375,5.452 14.375,7.729 C14.375,9.254 15.213,10.585 16.436,11.293 C16.393,15.781 14.118,16.727 10.125,17.993 C9.073,18.315 7.914,18.680 6.819,19.218 L6.819,8.545 C8.043,7.836 8.880,6.506 8.880,4.980 C8.880,2.704 7.034,0.857 4.758,0.857 C2.483,0.857 0.637,2.704 0.637,4.980 C0.637,6.506 1.474,7.836 2.698,8.545 L2.698,26.154 C1.474,26.863 0.637,28.193 0.637,29.718 C0.637,31.995 2.483,33.842 4.758,33.842 C7.034,33.842 8.880,31.995 8.880,29.718 C8.880,28.193 8.043,26.863 6.819,26.154 L6.819,25.596 C6.819,23.512 7.936,22.997 11.349,21.923 C14.998,20.764 20.493,19.046 20.558,11.293 C21.782,10.585 22.619,9.254 22.619,7.729 Z"/>
</symbol>
<symbol id="rocket" viewBox="0 0 35 35">
<path
 d="M29.370,7.485 C29.370,8.589 28.475,9.484 27.371,9.484 C26.268,9.484 25.372,8.589 25.372,7.485 C25.372,6.381 26.268,5.486 27.371,5.486 C28.475,5.486 29.370,6.381 29.370,7.485 ZM34.035,1.488 C34.035,1.113 33.701,0.822 33.327,0.822 C26.080,0.822 22.103,2.487 16.897,7.673 C15.710,8.880 14.482,10.254 13.232,11.733 L5.340,12.150 C5.132,12.171 4.924,12.295 4.799,12.483 L0.135,20.479 C-0.011,20.730 0.031,21.063 0.239,21.292 L1.571,22.624 C1.696,22.749 1.884,22.812 2.050,22.812 C2.113,22.812 2.175,22.812 2.238,22.790 L7.985,21.021 L13.836,26.872 L12.066,32.620 C12.004,32.849 12.066,33.099 12.233,33.286 L13.565,34.619 C13.711,34.743 13.878,34.806 14.044,34.806 C14.169,34.806 14.273,34.785 14.378,34.723 L22.374,30.058 C22.561,29.933 22.686,29.725 22.707,29.517 L23.123,21.624 C24.602,20.375 25.976,19.146 27.184,17.960 C32.119,13.004 34.035,8.402 34.035,1.488 Z"/>
</symbol>
<symbol id="database" viewBox="0 0 34 39">
<path
 d="M17.136,17.104 C10.675,17.104 4.192,15.958 0.650,13.497 L0.650,17.104 C0.650,20.093 8.034,22.533 17.136,22.533 C26.238,22.533 33.623,20.093 33.623,17.104 L33.623,13.497 C30.081,15.958 23.598,17.104 17.136,17.104 ZM17.136,33.392 C10.675,33.392 4.192,32.247 0.650,29.787 L0.650,33.392 C0.650,36.383 8.034,38.822 17.136,38.822 C26.238,38.822 33.623,36.383 33.623,33.392 L33.623,29.787 C30.081,32.247 23.598,33.392 17.136,33.392 ZM17.136,25.248 C10.675,25.248 4.192,24.102 0.650,21.642 L0.650,25.248 C0.650,28.238 8.034,30.677 17.136,30.677 C26.238,30.677 33.623,28.238 33.623,25.248 L33.623,21.642 C30.081,24.102 23.598,25.248 17.136,25.248 ZM17.136,0.814 C8.034,0.814 0.650,3.253 0.650,6.243 L0.650,8.959 C0.650,11.949 8.034,14.388 17.136,14.388 C26.238,14.388 33.623,11.949 33.623,8.959 L33.623,6.243 C33.623,3.253 26.238,0.814 17.136,0.814 Z"/>
</symbol>
<symbol id="twitter" viewBox="0 0 21 17">
<path
 d="M20.054,0.645 C19.262,1.116 18.384,1.456 17.451,1.641 C16.704,0.843 15.640,0.346 14.461,0.346 C12.198,0.346 10.364,2.181 10.364,4.442 C10.364,4.763 10.401,5.075 10.470,5.375 C7.066,5.205 4.048,3.573 2.027,1.095 C1.674,1.699 1.473,2.403 1.473,3.154 C1.473,4.576 2.197,5.830 3.295,6.565 C2.624,6.541 1.993,6.356 1.440,6.049 L1.440,6.101 C1.440,8.086 2.852,9.741 4.725,10.118 C4.382,10.211 4.020,10.262 3.646,10.262 C3.382,10.262 3.126,10.236 2.875,10.188 C3.396,11.816 4.909,12.999 6.701,13.033 C5.299,14.131 3.532,14.786 1.614,14.786 C1.283,14.786 0.957,14.766 0.636,14.731 C2.450,15.892 4.602,16.571 6.916,16.571 C14.451,16.571 18.571,10.327 18.571,4.914 L18.557,4.383 C19.360,3.808 20.056,3.087 20.605,2.266 C19.870,2.591 19.081,2.813 18.253,2.911 C19.098,2.404 19.747,1.600 20.054,0.645 Z"/>
</symbol>
<symbol id="facebook" viewBox="0 0 11 22">
<path
 d="M10.757,8.314 L6.884,8.314 L6.884,6.469 C6.884,6.469 6.668,4.714 7.923,4.714 C9.341,4.714 10.473,4.714 10.473,4.714 L10.473,0.929 L6.131,0.929 C6.131,0.929 2.495,0.914 2.495,4.483 C2.495,5.249 2.492,6.644 2.486,8.314 L-0.008,8.314 L-0.008,11.360 L2.480,11.360 C2.466,16.204 2.448,21.604 2.448,21.604 L6.884,21.604 L6.884,11.360 L9.812,11.360 L10.757,8.314 Z"/>
</symbol>
<symbol id="linkedin" viewBox="0 0 19 19">
<path
 d="M18.726,11.530 L18.726,18.451 L14.713,18.451 L14.713,11.994 C14.713,10.372 14.133,9.265 12.681,9.265 C11.572,9.265 10.912,10.010 10.622,10.732 C10.516,10.991 10.489,11.349 10.489,11.711 L10.489,18.451 L6.475,18.451 C6.475,18.451 6.529,7.515 6.475,6.383 L10.488,6.383 L10.488,8.093 C10.480,8.106 10.470,8.118 10.462,8.132 L10.488,8.132 L10.488,8.093 C11.022,7.271 11.974,6.098 14.105,6.098 C16.746,6.098 18.726,7.824 18.726,11.530 ZM2.277,0.562 C0.904,0.562 0.006,1.464 0.006,2.648 C0.006,3.807 0.878,4.735 2.224,4.735 L2.250,4.735 C3.650,4.735 4.520,3.808 4.520,2.648 C4.494,1.464 3.650,0.562 2.277,0.562 ZM0.244,18.451 L4.256,18.451 L4.256,6.383 L0.244,6.383 L0.244,18.451 Z"/>
</symbol>
<symbol id="google-plus" viewBox="0 0 20 21">
<path
 d="M19.896,11.312 L17.369,11.312 L17.369,13.855 C17.369,13.912 17.322,13.959 17.265,13.959 L16.178,13.959 C16.120,13.959 16.074,13.912 16.074,13.855 L16.074,11.312 L13.559,11.312 C13.502,11.312 13.455,11.266 13.455,11.208 L13.455,10.103 C13.455,10.046 13.502,9.998 13.559,9.998 L16.074,9.998 L16.074,7.472 C16.074,7.414 16.120,7.368 16.178,7.368 L17.265,7.368 C17.322,7.368 17.369,7.414 17.369,7.472 L17.369,9.998 L19.896,9.998 C19.954,9.998 20.000,10.045 20.000,10.103 L20.000,11.207 C20.000,11.265 19.953,11.312 19.896,11.312 ZM11.858,1.633 C11.842,1.643 11.822,1.649 11.803,1.649 L10.211,1.649 C10.814,2.149 12.067,3.188 12.067,5.201 C12.067,7.203 10.897,8.128 9.864,8.944 L9.830,8.978 C9.505,9.303 9.137,9.670 9.137,10.227 C9.137,10.793 9.505,11.099 9.801,11.345 L10.757,12.091 C11.891,13.050 12.959,13.952 12.959,15.779 C12.959,18.249 10.594,20.751 6.074,20.751 C2.187,20.751 0.447,18.861 0.447,16.987 C0.447,16.518 0.593,14.895 2.463,13.777 C4.047,12.802 6.216,12.653 7.381,12.572 L7.462,12.567 L7.416,12.507 C7.053,12.042 6.677,11.560 6.677,10.780 C6.677,10.378 6.785,10.120 6.898,9.847 L6.937,9.753 C6.672,9.778 6.372,9.805 6.101,9.805 C3.279,9.805 1.757,7.676 1.757,5.673 C1.757,4.373 2.382,3.056 3.429,2.150 C4.761,1.046 6.240,0.576 8.377,0.576 L13.174,0.576 C13.220,0.576 13.261,0.606 13.273,0.651 C13.286,0.696 13.268,0.743 13.229,0.768 L11.858,1.633 ZM5.000,13.728 C3.508,14.270 2.751,15.181 2.751,16.436 C2.751,18.358 4.602,19.647 7.357,19.647 C9.731,19.647 11.205,18.560 11.206,16.807 C11.206,15.429 10.279,14.707 8.351,13.331 C8.143,13.305 8.011,13.305 7.750,13.305 C7.735,13.305 6.194,13.325 5.000,13.728 ZM6.468,1.570 C5.775,1.570 5.055,1.911 4.635,2.438 C4.248,2.919 4.060,3.556 4.060,4.387 C4.060,6.019 5.019,9.068 7.331,9.068 C7.956,9.068 8.671,8.772 9.111,8.331 C9.765,7.672 9.765,6.723 9.765,6.411 C9.765,4.432 8.591,1.570 6.468,1.570 Z"/>
</symbol>
<symbol id="instagram" viewBox="0 0 21 21">
<path
 d="M3.296,0.704 L18.295,0.704 C19.719,0.704 20.884,1.759 20.884,3.295 L20.884,18.293 C20.884,19.827 19.719,20.882 18.295,20.882 L3.296,20.882 C1.872,20.882 0.707,19.827 0.707,18.293 L0.707,3.295 C0.707,1.759 1.872,0.704 3.296,0.704 L3.296,0.704 ZM15.405,2.946 C14.905,2.946 14.497,3.355 14.497,3.855 L14.497,6.029 C14.497,6.528 14.905,6.937 15.405,6.937 L17.686,6.937 C18.185,6.937 18.594,6.528 18.594,6.029 L18.594,3.855 C18.594,3.355 18.185,2.946 17.686,2.946 L15.405,2.946 L15.405,2.946 ZM18.604,9.237 L16.828,9.237 C16.996,9.787 17.087,10.368 17.087,10.968 C17.087,14.325 14.279,17.045 10.815,17.045 C7.351,17.045 4.543,14.325 4.543,10.968 C4.543,10.367 4.634,9.787 4.802,9.237 L2.949,9.237 L2.949,17.761 C2.949,18.202 3.310,18.564 3.751,18.564 L17.802,18.564 C18.243,18.564 18.604,18.202 18.604,17.761 L18.604,9.237 L18.604,9.237 ZM10.814,6.822 C8.577,6.822 6.762,8.581 6.762,10.750 C6.762,12.919 8.577,14.677 10.814,14.677 C13.052,14.677 14.867,12.919 14.867,10.750 C14.867,8.581 13.053,6.822 10.814,6.822 Z"/>
</symbol>
<symbol id="pinterest" viewBox="0 0 16 21">
<path
 d="M3.050,12.162 C4.019,10.484 2.738,10.117 2.537,8.902 C1.715,3.936 8.396,0.545 11.895,4.015 C14.316,6.417 12.721,13.806 8.818,13.037 C5.080,12.304 10.649,6.423 7.666,5.269 C5.241,4.330 3.953,8.138 5.103,10.031 C4.428,13.286 2.976,16.351 3.564,20.432 C5.470,19.080 6.114,16.491 6.640,13.789 C7.599,14.359 8.111,14.950 9.333,15.043 C13.838,15.383 16.356,10.645 15.739,6.271 C15.193,2.394 11.239,0.420 7.023,0.882 C3.689,1.248 0.366,3.883 0.228,7.650 C0.144,9.950 0.812,11.675 3.050,12.162 Z"/>
</symbol>
<symbol id="dribble" viewBox="0 0 21 21">
<path
 d="M9.564,7.669 C8.086,5.042 6.506,2.899 6.390,2.743 C4.006,3.869 2.227,6.066 1.672,8.712 C1.896,8.716 5.459,8.759 9.564,7.669 ZM10.629,10.540 C10.741,10.505 10.853,10.471 10.966,10.439 C10.752,9.952 10.518,9.466 10.272,8.986 C5.871,10.303 1.646,10.208 1.496,10.204 C1.493,10.293 1.489,10.383 1.489,10.475 C1.489,12.673 2.320,14.677 3.682,16.191 C3.680,16.188 3.676,16.183 3.676,16.183 C3.676,16.183 6.016,12.033 10.629,10.540 ZM4.783,17.214 L4.785,17.211 C4.721,17.161 4.653,17.115 4.591,17.064 C4.705,17.154 4.783,17.214 4.783,17.214 ZM7.990,2.175 C7.982,2.176 7.975,2.179 7.967,2.180 C7.980,2.177 7.988,2.176 7.988,2.176 L7.990,2.175 ZM15.683,4.059 C14.178,2.734 12.202,1.926 10.038,1.926 C9.343,1.926 8.669,2.011 8.023,2.167 C8.153,2.340 9.758,4.472 11.219,7.154 C14.442,5.945 15.661,4.095 15.683,4.059 ZM10.038,20.485 C4.509,20.485 0.028,16.002 0.028,10.475 C0.028,4.947 4.509,0.464 10.038,0.464 C15.566,0.464 20.047,4.947 20.047,10.475 C20.047,16.002 15.566,20.485 10.038,20.485 ZM11.492,11.874 C6.475,13.623 4.818,17.139 4.785,17.211 C6.235,18.343 8.055,19.024 10.038,19.024 C11.222,19.024 12.349,18.783 13.375,18.346 C13.248,17.597 12.751,14.979 11.549,11.855 C11.530,11.862 11.511,11.866 11.492,11.874 ZM11.877,8.428 C12.076,8.836 12.267,9.250 12.445,9.668 C12.508,9.815 12.569,9.963 12.629,10.110 C15.582,9.739 18.488,10.368 18.583,10.390 C18.563,8.360 17.839,6.500 16.639,5.044 C16.622,5.071 15.251,7.051 11.877,8.428 ZM13.150,11.459 C14.273,14.544 14.728,17.054 14.814,17.564 C16.734,16.269 18.097,14.215 18.477,11.832 C18.307,11.776 15.914,11.017 13.150,11.459 Z"/>
</symbol>
<symbol id="cube" viewBox="0 0 36 35"></symbol>
</svg>