<svg 
 xmlns="http://www.w3.org/2000/svg"
 xmlns:xlink="http://www.w3.org/1999/xlink"
 width="38px" height="30px">
<path fill-rule="evenodd"  fill="rgb(255, 51, 102)"
 d="M21.709,26.646 L21.709,24.010 L35.277,24.010 L35.277,26.646 L21.709,26.646 ZM13.568,16.104 L13.568,13.469 L35.277,13.469 L35.277,16.104 L13.568,16.104 ZM27.136,5.562 L27.136,2.927 L35.277,2.927 L35.277,5.562 L27.136,5.562 ZM37.991,22.692 C37.991,21.972 37.376,21.375 36.634,21.375 L1.357,21.375 C0.615,21.375 0.000,21.972 0.000,22.692 L0.000,27.963 C0.000,28.684 0.615,29.281 1.357,29.281 L36.634,29.281 C37.376,29.281 37.991,28.684 37.991,27.963 L37.991,22.692 ZM37.991,12.151 C37.991,11.431 37.376,10.833 36.634,10.833 L1.357,10.833 C0.615,10.833 0.000,11.431 0.000,12.151 L0.000,17.422 C0.000,18.143 0.615,18.740 1.357,18.740 L36.634,18.740 C37.376,18.740 37.991,18.143 37.991,17.422 L37.991,12.151 ZM37.991,1.610 C37.991,0.889 37.376,0.292 36.634,0.292 L1.357,0.292 C0.615,0.292 0.000,0.889 0.000,1.610 L0.000,6.881 C0.000,7.601 0.615,8.198 1.357,8.198 L36.634,8.198 C37.376,8.198 37.991,7.601 37.991,6.881 L37.991,1.610 Z"/>
</svg>