<svg 
 xmlns="http://www.w3.org/2000/svg"
 xmlns:xlink="http://www.w3.org/1999/xlink"
 width="21px" height="17px">
<path fill-rule="evenodd"  fill="rgb(208, 209, 210)"
 d="M20.054,0.645 C19.262,1.116 18.384,1.456 17.451,1.641 C16.704,0.843 15.640,0.346 14.461,0.346 C12.198,0.346 10.364,2.181 10.364,4.442 C10.364,4.763 10.401,5.075 10.470,5.375 C7.066,5.205 4.048,3.573 2.027,1.095 C1.674,1.699 1.473,2.403 1.473,3.154 C1.473,4.576 2.197,5.830 3.295,6.565 C2.624,6.541 1.993,6.356 1.440,6.049 L1.440,6.101 C1.440,8.086 2.852,9.741 4.725,10.118 C4.382,10.211 4.020,10.262 3.646,10.262 C3.382,10.262 3.126,10.236 2.875,10.188 C3.396,11.816 4.909,12.999 6.701,13.033 C5.299,14.131 3.532,14.786 1.614,14.786 C1.283,14.786 0.957,14.766 0.636,14.731 C2.450,15.892 4.602,16.571 6.916,16.571 C14.451,16.571 18.571,10.327 18.571,4.914 L18.557,4.383 C19.360,3.808 20.056,3.087 20.605,2.266 C19.870,2.591 19.081,2.813 18.253,2.911 C19.098,2.404 19.747,1.600 20.054,0.645 Z"/>
</svg>