<svg 
 xmlns="http://www.w3.org/2000/svg"
 xmlns:xlink="http://www.w3.org/1999/xlink"
 width="193px" height="46px">
<path fill-rule="evenodd"  fill="rgb(255, 255, 255)"
 d="M191.564,38.472 C191.051,38.984 190.436,39.241 189.718,39.241 C189.000,39.241 188.385,38.984 187.872,38.472 C187.374,37.974 187.125,37.366 187.125,36.648 L187.125,19.553 L178.930,33.088 L178.930,33.110 L178.908,33.132 L178.886,33.155 L178.864,33.176 C178.820,33.250 178.790,33.301 178.776,33.330 L178.710,33.418 C178.651,33.477 178.614,33.514 178.600,33.528 C178.585,33.543 178.556,33.572 178.512,33.615 C178.468,33.660 178.439,33.689 178.424,33.704 C178.395,33.733 178.351,33.769 178.292,33.814 L178.226,33.879 C178.182,33.909 178.131,33.938 178.073,33.968 C178.073,33.982 178.065,33.989 178.051,33.989 L178.029,34.011 L178.007,34.011 C177.977,34.041 177.926,34.070 177.853,34.099 C177.794,34.129 177.772,34.143 177.787,34.143 C177.772,34.143 177.728,34.158 177.655,34.187 C177.318,34.334 176.966,34.399 176.600,34.385 L176.556,34.385 C176.586,34.385 176.556,34.377 176.469,34.363 C176.278,34.348 176.088,34.312 175.897,34.253 C175.824,34.238 175.795,34.231 175.809,34.231 C175.839,34.245 175.809,34.238 175.722,34.209 C175.648,34.180 175.597,34.158 175.568,34.143 C175.582,34.143 175.568,34.129 175.524,34.099 C175.450,34.070 175.392,34.041 175.348,34.011 L175.326,34.011 L175.304,33.989 L175.282,33.968 C175.223,33.938 175.172,33.901 175.128,33.857 C175.128,33.872 175.106,33.857 175.062,33.814 C175.004,33.769 174.960,33.733 174.931,33.704 C174.916,33.689 174.887,33.660 174.843,33.615 C174.799,33.572 174.769,33.543 174.755,33.528 C174.740,33.499 174.703,33.462 174.645,33.418 C174.615,33.374 174.601,33.345 174.601,33.330 C174.571,33.301 174.535,33.250 174.491,33.176 L174.469,33.155 C174.469,33.140 174.462,33.132 174.447,33.132 L174.447,33.110 C174.447,33.096 174.440,33.088 174.425,33.088 L166.251,19.553 L166.251,36.648 C166.251,37.366 165.995,37.974 165.482,38.472 C164.969,38.984 164.354,39.241 163.637,39.241 C162.919,39.241 162.311,38.984 161.813,38.472 C161.300,37.974 161.044,37.366 161.044,36.648 L161.044,10.237 C161.044,9.651 161.220,9.131 161.571,8.676 C161.923,8.208 162.384,7.893 162.955,7.732 C163.512,7.586 164.061,7.615 164.603,7.820 C165.145,8.040 165.570,8.399 165.878,8.897 L176.688,26.761 L187.499,8.897 C187.792,8.399 188.209,8.040 188.751,7.820 C189.293,7.615 189.564,7.512 189.564,7.512 C189.564,7.512 189.850,7.586 190.421,7.732 C190.978,7.893 191.432,8.208 191.784,8.676 C192.135,9.131 192.311,9.651 192.311,10.237 L192.311,36.648 C192.311,37.366 192.062,37.974 191.564,38.472 ZM138.873,39.241 C134.523,39.241 130.809,37.695 127.733,34.604 C124.642,31.529 123.097,27.815 123.097,23.464 C123.097,19.114 124.642,15.393 127.733,12.302 C130.809,9.226 134.523,7.688 138.873,7.688 C143.224,7.688 146.945,9.226 150.035,12.302 C153.112,15.393 154.650,19.114 154.650,23.464 C154.650,27.815 153.112,31.529 150.035,34.604 C146.945,37.695 143.224,39.241 138.873,39.241 ZM146.366,15.972 C144.286,13.906 141.788,12.873 138.873,12.873 C135.958,12.873 133.468,13.906 131.403,15.972 C129.322,18.052 128.283,20.550 128.283,23.464 C128.283,26.379 129.322,28.870 131.403,30.935 C133.468,33.015 135.958,34.055 138.873,34.055 C141.788,34.055 144.286,33.015 146.366,30.935 C148.431,28.870 149.464,26.379 149.464,23.464 C149.464,20.550 148.431,18.052 146.366,15.972 ZM102.750,39.241 C98.400,39.241 94.686,37.695 91.610,34.604 C88.519,31.529 86.974,27.815 86.974,23.464 C86.974,19.114 88.519,15.393 91.610,12.302 C94.686,9.226 98.400,7.688 102.750,7.688 C107.101,7.688 110.822,9.226 113.912,12.302 C116.989,15.393 118.527,19.114 118.527,23.464 C118.527,27.815 116.989,31.529 113.912,34.604 C110.822,37.695 107.101,39.241 102.750,39.241 ZM110.243,15.972 C108.163,13.906 105.665,12.873 102.750,12.873 C99.835,12.873 97.345,13.906 95.280,15.972 C93.199,18.052 92.160,20.550 92.160,23.464 C92.160,26.379 93.199,28.870 95.280,30.935 C97.345,33.015 99.835,34.055 102.750,34.055 C105.665,34.055 108.163,33.015 110.243,30.935 C112.308,28.870 113.341,26.379 113.341,23.464 C113.341,20.550 112.308,18.052 110.243,15.972 ZM66.012,34.055 L80.778,34.055 C81.495,34.055 82.103,34.305 82.601,34.803 C83.114,35.315 83.370,35.930 83.370,36.648 C83.370,37.366 83.114,37.974 82.601,38.472 C82.103,38.984 81.495,39.241 80.778,39.241 L60.695,39.241 C59.610,39.241 58.827,38.757 58.344,37.791 C57.875,36.809 57.977,35.893 58.651,35.044 L75.988,12.895 L61.244,12.895 C60.526,12.895 59.911,12.647 59.398,12.149 C58.885,11.635 58.629,11.021 58.629,10.302 C58.629,9.585 58.885,8.977 59.398,8.479 C59.911,7.966 60.526,7.710 61.244,7.710 L81.327,7.710 C82.396,7.710 83.173,8.201 83.656,9.182 C84.125,10.148 84.030,11.057 83.370,11.907 L66.012,34.055 Z"/>
<path fill-rule="evenodd"  fill="rgb(255, 255, 255)"
 d="M39.000,46.000 C37.343,46.000 36.000,44.657 36.000,43.000 L36.000,3.000 C36.000,1.343 37.343,-0.000 39.000,-0.000 C40.657,-0.000 42.000,1.343 42.000,3.000 L42.000,43.000 C42.000,44.657 40.657,46.000 39.000,46.000 ZM30.000,39.000 C28.343,39.000 27.000,37.657 27.000,36.000 L27.000,10.000 C27.000,8.343 28.343,7.000 30.000,7.000 C31.657,7.000 33.000,8.343 33.000,10.000 L33.000,36.000 C33.000,37.657 31.657,39.000 30.000,39.000 ZM21.000,35.000 C19.343,35.000 18.000,33.657 18.000,32.000 L18.000,15.000 C18.000,13.343 19.343,12.000 21.000,12.000 C22.657,12.000 24.000,13.343 24.000,15.000 L24.000,32.000 C24.000,33.657 22.657,35.000 21.000,35.000 ZM12.000,42.000 C10.343,42.000 9.000,40.657 9.000,39.000 L9.000,8.000 C9.000,6.343 10.343,5.000 12.000,5.000 C13.657,5.000 15.000,6.343 15.000,8.000 L15.000,39.000 C15.000,40.657 13.657,42.000 12.000,42.000 ZM3.000,38.000 C1.343,38.000 0.000,36.657 0.000,35.000 L0.000,12.000 C0.000,10.343 1.343,9.000 3.000,9.000 C4.657,9.000 6.000,10.343 6.000,12.000 L6.000,35.000 C6.000,36.657 4.657,38.000 3.000,38.000 Z"/>
</svg>