<svg 
 xmlns="http://www.w3.org/2000/svg"
 xmlns:xlink="http://www.w3.org/1999/xlink"
 width="150px" height="78px">
<path fill-rule="evenodd"  fill="rgb(104, 176, 201)"
 d="M148.622,16.254 C147.543,18.493 144.854,19.434 142.615,18.355 C140.852,17.506 139.913,15.659 140.111,13.819 L132.656,10.227 L133.958,7.524 L141.413,11.116 C142.728,9.814 144.758,9.398 146.521,10.247 C148.760,11.326 149.701,14.015 148.622,16.254 ZM145.653,12.049 C144.409,11.450 142.915,11.972 142.316,13.216 C141.716,14.460 142.239,15.954 143.483,16.553 C144.727,17.153 146.221,16.630 146.820,15.386 C147.419,14.142 146.897,12.648 145.653,12.049 ZM120.490,6.503 L121.185,3.585 L129.940,5.671 L129.245,8.590 L120.490,6.503 ZM108.377,3.998 L109.072,1.079 L117.827,3.165 L117.132,6.084 L108.377,3.998 ZM96.033,3.407 L96.079,0.408 L105.078,0.546 L105.032,3.546 L96.033,3.407 ZM82.957,2.570 L91.890,1.470 L92.257,4.447 L83.324,5.547 L82.957,2.570 ZM68.601,5.070 L77.365,3.023 L78.047,5.944 L69.283,7.992 L68.601,5.070 ZM55.234,10.327 L63.677,7.210 L64.716,10.025 L56.273,13.141 L55.234,10.327 ZM43.423,17.883 L50.887,12.855 L52.563,15.343 L45.099,20.372 L43.423,17.883 ZM33.087,26.838 L39.602,20.630 L41.672,22.801 L35.156,29.010 L33.087,26.838 ZM21.143,39.350 L26.507,32.122 L28.916,33.910 L23.552,41.137 L21.143,39.350 ZM13.087,52.328 L17.789,44.655 L20.347,46.222 L15.645,53.896 L13.087,52.328 ZM8.202,69.157 C9.834,70.432 10.422,72.710 9.486,74.652 C8.407,76.891 5.718,77.831 3.479,76.752 C1.240,75.674 0.299,72.984 1.378,70.745 C2.056,69.337 3.372,68.445 4.812,68.244 L4.798,68.236 L10.427,57.921 L13.412,59.611 L8.202,69.157 ZM3.180,71.613 C2.581,72.857 3.103,74.351 4.347,74.951 C5.591,75.550 7.085,75.027 7.684,73.784 C8.284,72.540 7.761,71.046 6.517,70.446 C5.273,69.847 3.779,70.370 3.180,71.613 Z"/>
</svg>