<svg 
 xmlns="http://www.w3.org/2000/svg"
 xmlns:xlink="http://www.w3.org/1999/xlink"
 width="143px" height="53px">
<path fill-rule="evenodd"  fill="rgb(104, 176, 201)"
 d="M142.153,6.633 C141.288,7.766 139.951,8.318 138.630,8.228 L138.641,8.238 L131.720,16.417 L129.370,14.344 L135.776,6.774 C134.556,5.326 134.452,3.177 135.645,1.613 C137.019,-0.189 139.591,-0.526 141.388,0.860 C143.185,2.246 143.527,4.831 142.153,6.633 ZM140.282,2.310 C139.283,1.540 137.855,1.728 137.091,2.729 C136.327,3.730 136.518,5.166 137.516,5.936 C138.514,6.706 139.943,6.519 140.707,5.518 C141.470,4.516 141.280,3.080 140.282,2.310 ZM120.718,25.029 L126.326,19.041 L128.317,20.925 L122.710,26.913 L120.718,25.029 ZM110.809,34.444 L116.923,28.980 L118.741,31.033 L112.627,36.497 L110.809,34.444 ZM97.388,41.996 L104.341,37.660 L105.786,39.993 L98.832,44.329 L97.388,41.996 ZM86.302,46.629 L93.884,43.528 L94.919,46.071 L87.337,49.171 L86.302,46.629 ZM74.487,49.110 L82.589,47.904 L82.996,50.619 L74.894,51.825 L74.487,49.110 ZM61.849,50.261 L70.040,50.073 L70.110,52.817 L61.919,53.005 L61.849,50.261 ZM48.683,51.668 L48.905,48.933 L57.072,49.625 L56.849,52.360 L48.683,51.668 ZM36.756,50.019 L37.350,47.342 L45.347,49.156 L44.753,51.833 L36.756,50.019 ZM25.873,45.281 L27.031,42.798 L34.451,46.310 L33.293,48.792 L25.873,45.281 ZM15.536,40.763 L16.694,38.281 L24.115,41.792 L22.957,44.274 L15.536,40.763 ZM12.296,38.350 L6.312,33.734 C4.900,34.653 3.013,34.644 1.598,33.553 C-0.199,32.167 -0.541,29.582 0.833,27.780 C2.208,25.978 4.779,25.641 6.576,27.027 C7.991,28.118 8.488,29.948 7.972,31.558 L13.956,36.174 L12.296,38.350 ZM5.470,28.477 C4.472,27.707 3.043,27.894 2.280,28.896 C1.516,29.897 1.706,31.333 2.705,32.103 C3.703,32.873 5.131,32.685 5.895,31.684 C6.659,30.683 6.468,29.247 5.470,28.477 Z"/>
</svg>