<svg 
 xmlns="http://www.w3.org/2000/svg"
 xmlns:xlink="http://www.w3.org/1999/xlink"
 width="144px" height="54px">
<path fill-rule="evenodd"  fill="rgb(104, 176, 201)"
 d="M141.698,52.578 C139.898,53.963 137.323,53.626 135.946,51.825 C134.752,50.263 134.856,48.114 136.078,46.667 L129.662,39.102 L132.015,37.030 L138.947,45.204 L138.936,45.214 C140.259,45.124 141.598,45.675 142.464,46.808 C143.841,48.609 143.498,51.192 141.698,52.578 ZM141.015,47.923 C140.251,46.922 138.820,46.735 137.820,47.505 C136.820,48.274 136.630,49.709 137.394,50.710 C138.159,51.711 139.590,51.898 140.590,51.128 C141.590,50.359 141.780,48.924 141.015,47.923 ZM120.997,28.423 L122.991,26.540 L128.607,32.525 L126.613,34.407 L120.997,28.423 ZM111.072,19.013 L112.893,16.961 L119.017,22.422 L117.196,24.474 L111.072,19.013 ZM97.630,11.466 L99.077,9.134 L106.041,13.467 L104.595,15.799 L97.630,11.466 ZM86.528,6.836 L87.565,4.295 L95.158,7.393 L94.121,9.934 L86.528,6.836 ZM74.695,4.356 L75.103,1.643 L83.217,2.848 L82.809,5.561 L74.695,4.356 ZM62.038,3.206 L62.107,0.464 L70.311,0.652 L70.241,3.394 L62.038,3.206 ZM48.851,1.799 L57.030,1.108 L57.253,3.841 L49.074,4.533 L48.851,1.799 ZM36.906,3.447 L44.915,1.635 L45.511,4.311 L37.501,6.123 L36.906,3.447 ZM26.006,8.183 L33.438,4.674 L34.598,7.155 L27.166,10.664 L26.006,8.183 ZM15.654,12.698 L23.085,9.189 L24.245,11.670 L16.814,15.179 L15.654,12.698 ZM6.680,26.426 C4.880,27.812 2.305,27.474 0.928,25.674 C-0.448,23.872 -0.105,21.289 1.695,19.904 C3.111,18.813 5.001,18.805 6.416,19.723 L12.409,15.110 L14.071,17.285 L8.078,21.897 C8.595,23.507 8.097,25.336 6.680,26.426 ZM5.998,21.772 C5.233,20.771 3.802,20.584 2.802,21.353 C1.802,22.123 1.612,23.558 2.377,24.559 C3.142,25.559 4.572,25.747 5.572,24.977 C6.572,24.207 6.763,22.772 5.998,21.772 Z"/>
</svg>