<svg 
 xmlns="http://www.w3.org/2000/svg"
 xmlns:xlink="http://www.w3.org/1999/xlink"
 width="122px" height="109px">
<path fill-rule="evenodd"  fill="rgb(104, 176, 201)"
 d="M117.500,109.000 C115.937,109.000 114.562,108.202 113.755,106.992 L113.754,107.008 L102.019,106.414 L102.246,102.991 L113.107,103.541 C113.547,101.517 115.344,100.000 117.500,100.000 C119.985,100.000 122.000,102.014 122.000,104.500 C122.000,106.985 119.985,109.000 117.500,109.000 ZM117.500,102.000 C116.119,102.000 115.000,103.119 115.000,104.500 C115.000,105.881 116.119,107.000 117.500,107.000 C118.881,107.000 120.000,105.881 120.000,104.500 C120.000,103.119 118.881,102.000 117.500,102.000 ZM86.872,105.539 L87.174,102.555 L96.128,103.460 L95.826,106.445 L86.872,105.539 ZM71.798,103.126 L72.363,100.179 L81.202,101.874 L80.637,104.820 L71.798,103.126 ZM55.760,96.316 L56.818,93.509 L65.240,96.684 L64.181,99.491 L55.760,96.316 ZM43.858,89.523 L45.372,86.934 L53.142,91.476 L51.628,94.066 L43.858,89.523 ZM33.222,80.452 L35.306,78.294 L41.778,84.548 L39.694,86.706 L33.222,80.452 ZM23.508,69.938 L25.843,68.055 L31.492,75.062 L29.156,76.945 L23.508,69.938 ZM15.804,57.526 L18.327,55.904 L23.196,63.473 L20.672,65.096 L15.804,57.526 ZM9.248,46.047 L11.971,44.786 L15.752,52.953 L13.029,54.214 L9.248,46.047 ZM6.074,33.423 L9.005,32.783 L10.926,41.576 L7.995,42.216 L6.074,33.423 ZM6.000,8.724 L6.000,17.000 L3.000,17.000 L3.000,8.724 C1.256,8.104 -0.000,6.456 -0.000,4.500 C-0.000,2.015 2.015,-0.000 4.500,-0.000 C6.985,-0.000 9.000,2.015 9.000,4.500 C9.000,6.456 7.744,8.104 6.000,8.724 ZM4.500,2.000 C3.119,2.000 2.000,3.119 2.000,4.500 C2.000,5.881 3.119,7.000 4.500,7.000 C5.881,7.000 7.000,5.881 7.000,4.500 C7.000,3.119 5.881,2.000 4.500,2.000 ZM7.926,29.576 L4.995,30.216 L3.074,21.424 L6.005,20.784 L7.926,29.576 Z"/>
</svg>