<svg 
 xmlns="http://www.w3.org/2000/svg"
 xmlns:xlink="http://www.w3.org/1999/xlink"
 width="80px" height="94px">
<path fill-rule="evenodd"  opacity="0.788" fill="rgb(236, 242, 247)"
 d="M75.000,88.999 C70.426,93.980 63.000,93.999 63.000,93.999 L13.000,93.999 C13.000,93.999 7.750,92.505 5.000,88.999 C1.567,84.623 -0.205,77.850 -0.000,74.999 C0.563,67.151 9.000,68.999 9.000,68.999 C9.000,68.999 5.836,59.053 8.000,49.000 C12.481,28.184 14.044,23.375 20.000,20.999 C24.847,19.066 31.000,18.999 31.000,18.999 L31.000,15.999 C31.000,15.999 25.448,17.014 23.000,12.999 C21.333,10.267 22.939,5.687 25.000,3.000 C26.801,0.651 29.000,-0.001 29.000,-0.001 L50.000,-0.001 C50.000,-0.001 53.041,-0.019 55.000,1.999 C57.908,4.997 59.810,10.782 57.000,13.999 C54.736,16.592 49.000,15.999 49.000,15.999 L49.000,18.999 C49.000,18.999 55.740,18.407 61.000,20.999 C66.093,23.509 69.949,31.064 73.000,49.999 C74.637,60.159 71.000,68.999 71.000,68.999 C71.000,68.999 77.617,67.751 79.000,73.999 C79.850,77.841 78.494,85.195 75.000,88.999 ZM22.000,90.999 L59.000,90.999 L59.000,77.999 C59.000,77.999 58.156,77.462 57.000,76.999 C55.668,76.467 54.000,75.999 54.000,75.999 L54.000,82.999 C54.000,82.999 53.260,83.958 52.000,84.000 C50.739,84.040 51.000,82.999 51.000,82.999 L51.000,75.999 L48.000,75.999 L48.000,82.999 C48.000,82.999 47.471,83.999 46.000,84.000 C44.684,84.000 44.000,82.999 44.000,82.999 L44.000,75.999 L42.000,75.999 L42.000,82.999 C42.000,82.999 41.391,83.887 40.000,84.000 C38.609,84.113 38.000,82.999 38.000,82.999 L38.000,75.999 L36.000,75.999 L36.000,82.999 C36.000,82.999 35.348,83.958 34.000,84.000 C32.652,84.040 32.000,82.999 32.000,82.999 L32.000,75.999 L30.000,75.999 L30.000,82.999 C30.000,82.999 29.167,83.958 28.000,84.000 C26.588,84.050 26.000,82.999 26.000,82.999 L26.000,76.999 C26.000,75.747 22.000,76.485 22.000,76.999 L22.000,90.999 ZM4.000,73.999 C2.848,76.594 4.597,82.617 8.000,87.000 C11.403,91.382 15.000,90.999 15.000,90.999 L19.000,90.999 L19.000,77.999 L16.000,77.999 C16.000,77.999 13.098,75.594 11.000,73.000 C8.901,70.405 5.152,71.405 4.000,73.999 ZM53.000,12.999 C53.000,12.999 54.572,12.528 55.000,8.999 C55.428,5.470 51.000,3.000 51.000,3.000 L30.000,3.000 C30.000,3.000 27.326,3.881 26.000,8.000 C24.674,12.117 28.000,12.999 28.000,12.999 L53.000,12.999 ZM34.000,15.999 L34.000,18.999 L46.000,18.999 L46.000,15.999 L34.000,15.999 ZM68.000,42.999 C65.244,34.205 64.489,24.202 58.000,22.999 C51.511,21.796 27.950,20.856 23.000,22.999 C17.624,25.327 14.768,32.616 13.000,39.000 C9.493,51.663 11.142,66.041 12.000,68.000 C14.282,73.205 18.000,74.999 18.000,74.999 C18.000,74.999 33.776,72.864 41.000,73.000 C48.224,73.135 62.000,74.999 62.000,74.999 C62.000,74.999 68.503,72.092 69.000,64.999 C69.497,57.907 70.756,51.794 68.000,42.999 ZM73.000,72.000 C68.604,71.776 67.968,74.764 66.000,75.999 C64.032,77.235 62.000,77.999 62.000,77.999 L62.000,90.999 L66.000,90.999 C66.000,90.999 71.890,89.126 74.000,84.000 C76.110,78.873 77.396,72.223 73.000,72.000 ZM57.000,70.999 C55.233,71.171 55.000,68.999 55.000,68.999 C55.000,68.999 54.568,37.202 53.000,33.999 C51.432,30.797 32.247,31.092 28.000,32.999 C23.753,34.907 25.000,68.999 25.000,68.999 C25.000,68.999 24.650,71.858 23.000,72.000 C21.349,72.141 21.000,70.000 21.000,70.000 C21.000,70.000 20.969,68.097 21.000,63.999 C21.031,59.902 21.386,35.382 25.000,30.999 C26.877,28.723 32.599,28.096 40.000,27.999 C47.401,27.903 54.273,29.594 56.000,31.999 C57.727,34.405 59.000,68.999 59.000,68.999 C59.000,68.999 58.766,70.828 57.000,70.999 Z"/>
</svg>