<svg 
 xmlns="http://www.w3.org/2000/svg"
 xmlns:xlink="http://www.w3.org/1999/xlink"
 width="82px" height="42px">
<path fill-rule="evenodd"  fill="rgb(94, 165, 189)"
 d="M77.761,7.702 C76.411,7.676 75.268,6.880 74.706,5.749 L68.920,7.957 L68.207,6.088 L74.377,3.734 C74.612,1.997 76.101,0.668 77.895,0.703 C79.828,0.740 81.365,2.336 81.328,4.269 C81.291,6.202 79.694,7.739 77.761,7.702 ZM77.857,2.702 C77.029,2.686 76.345,3.345 76.329,4.173 C76.313,5.002 76.971,5.686 77.800,5.702 C78.628,5.718 79.312,5.059 79.328,4.231 C79.344,3.402 78.685,2.718 77.857,2.702 ZM57.113,10.877 L64.279,8.142 L64.992,10.011 L57.826,12.745 L57.113,10.877 ZM46.020,15.665 L53.186,12.931 L53.899,14.799 L46.733,17.534 L46.020,15.665 ZM34.926,20.453 L42.092,17.719 L42.805,19.587 L35.639,22.322 L34.926,20.453 ZM24.832,25.261 L31.998,22.527 L32.711,24.395 L25.545,27.130 L24.832,25.261 ZM14.738,30.069 L21.904,27.334 L22.617,29.203 L15.451,31.937 L14.738,30.069 ZM7.671,37.865 C7.634,39.797 6.037,41.334 4.104,41.297 C2.172,41.260 0.635,39.663 0.672,37.731 C0.709,35.798 2.306,34.261 4.239,34.298 C4.858,34.310 5.427,34.496 5.927,34.787 L12.810,32.161 L13.523,34.029 L7.361,36.381 C7.564,36.835 7.681,37.335 7.671,37.865 ZM4.200,36.298 C3.372,36.282 2.688,36.940 2.672,37.769 C2.656,38.597 3.314,39.281 4.143,39.297 C4.971,39.313 5.655,38.654 5.671,37.826 C5.687,36.998 5.029,36.314 4.200,36.298 Z"/>
</svg>