<svg 
 xmlns="http://www.w3.org/2000/svg"
 xmlns:xlink="http://www.w3.org/1999/xlink"
 width="82px" height="41px">
<path fill-rule="evenodd"  fill="rgb(147, 147, 147)"
 d="M78.567,40.588 C76.625,40.625 75.021,39.089 74.984,37.158 C74.974,36.628 75.091,36.128 75.295,35.674 L69.104,33.324 L69.821,31.457 L76.736,34.082 C77.238,33.790 77.810,33.605 78.432,33.593 C80.374,33.556 81.978,35.092 82.015,37.023 C82.052,38.955 80.509,40.551 78.567,40.588 ZM78.471,35.591 C77.639,35.607 76.977,36.291 76.993,37.119 C77.009,37.947 77.696,38.605 78.528,38.589 C79.361,38.574 80.022,37.889 80.006,37.062 C79.990,36.234 79.303,35.576 78.471,35.591 ZM59.967,28.500 L60.684,26.633 L67.884,29.366 L67.167,31.233 L59.967,28.500 ZM49.826,23.695 L50.543,21.828 L57.742,24.561 L57.026,26.428 L49.826,23.695 ZM39.685,18.890 L40.401,17.023 L47.601,19.755 L46.885,21.623 L39.685,18.890 ZM28.539,14.104 L29.256,12.236 L36.455,14.970 L35.739,16.837 L28.539,14.104 ZM17.393,9.318 L18.110,7.451 L25.309,10.184 L24.593,12.051 L17.393,9.318 ZM13.447,7.266 L7.634,5.059 C7.070,6.189 5.921,6.984 4.564,7.010 C2.623,7.047 1.018,5.511 0.981,3.580 C0.944,1.648 2.488,0.052 4.430,0.015 C6.233,-0.019 7.728,1.309 7.964,3.045 L14.164,5.398 L13.447,7.266 ZM4.468,2.014 C3.636,2.030 2.974,2.714 2.990,3.542 C3.006,4.369 3.694,5.028 4.526,5.012 C5.358,4.996 6.020,4.312 6.004,3.484 C5.988,2.656 5.300,1.998 4.468,2.014 Z"/>
</svg>