<svg 
 xmlns="http://www.w3.org/2000/svg"
 xmlns:xlink="http://www.w3.org/1999/xlink"
 width="65px" height="105px">
<path fill-rule="evenodd"  fill="rgb(104, 176, 201)"
 d="M64.326,51.545 L62.328,51.446 L62.674,44.455 L64.672,44.554 L64.326,51.545 ZM58.704,33.834 L60.648,33.363 L62.296,40.166 L60.352,40.637 L58.704,33.834 ZM52.720,23.649 L54.382,22.536 L58.280,28.350 L56.618,29.464 L52.720,23.649 ZM46.343,16.187 L47.777,14.793 L52.657,19.812 L51.223,21.206 L46.343,16.187 ZM37.992,11.029 L39.035,9.322 L45.008,12.971 L43.965,14.678 L37.992,11.029 ZM29.888,94.454 L36.327,91.707 L37.112,93.546 L30.673,96.293 L29.888,94.454 ZM28.872,6.704 L29.576,4.832 L36.128,7.296 L35.424,9.168 L28.872,6.704 ZM18.902,96.446 L25.847,95.570 L26.098,97.554 L19.153,98.430 L18.902,96.446 ZM17.898,4.527 L18.164,2.544 L25.102,3.473 L24.836,5.455 L17.898,4.527 ZM5.507,98.959 L13.375,103.231 L12.433,104.926 L1.009,98.724 L1.429,97.967 L1.044,97.251 L12.431,90.980 L13.350,92.688 L5.485,97.020 L15.012,97.053 L14.987,98.993 L5.507,98.959 ZM4.500,9.000 C2.015,9.000 -0.000,6.985 -0.000,4.500 C-0.000,2.014 2.015,-0.000 4.500,-0.000 C6.456,-0.000 8.104,1.256 8.724,3.000 L15.000,3.000 L15.000,5.000 L8.950,5.000 C8.698,7.247 6.814,9.000 4.500,9.000 ZM4.500,2.000 C3.119,2.000 2.000,3.119 2.000,4.500 C2.000,5.881 3.119,7.000 4.500,7.000 C5.881,7.000 7.000,5.881 7.000,4.500 C7.000,3.119 5.881,2.000 4.500,2.000 ZM47.794,86.450 L42.522,91.056 L41.206,89.550 L46.478,84.944 L47.794,86.450 ZM55.381,76.775 L51.230,82.411 L49.619,81.225 L53.770,75.589 L55.381,76.775 ZM60.885,67.250 L57.927,73.594 L56.115,72.749 L59.073,66.405 L60.885,67.250 ZM62.199,55.372 L64.161,55.761 L62.800,62.628 L60.839,62.238 L62.199,55.372 Z"/>
</svg>