<svg 
 xmlns="http://www.w3.org/2000/svg"
 xmlns:xlink="http://www.w3.org/1999/xlink"
 width="22px" height="21px">
<path fill-rule="evenodd"  fill="rgb(104, 176, 201)"
 d="M20.000,12.000 L20.000,20.999 L2.000,20.999 L2.000,12.000 C2.000,12.000 0.024,12.539 -0.000,9.000 C-0.025,5.402 4.000,6.000 4.000,6.000 L6.000,6.000 C6.000,6.000 3.101,5.603 3.000,4.000 C2.868,1.909 5.188,1.087 6.000,1.000 C9.083,0.670 9.937,4.000 9.937,4.000 L11.973,4.006 C11.973,4.006 14.344,1.019 16.000,1.000 C17.848,0.978 18.969,1.806 19.062,4.297 C19.113,5.659 17.000,6.000 17.000,6.000 L20.000,6.000 C20.000,6.000 21.979,6.118 22.000,9.000 C22.017,11.336 20.000,12.000 20.000,12.000 ZM8.000,3.000 C7.312,2.125 5.062,2.656 5.000,4.000 C4.937,5.343 9.000,5.000 9.000,5.000 C9.000,5.000 8.687,3.875 8.000,3.000 ZM9.000,8.000 L3.000,8.000 C3.000,8.000 1.905,8.136 2.000,10.000 C2.057,11.116 3.000,11.000 3.000,11.000 L9.000,11.000 L9.000,8.000 ZM9.000,13.000 L4.000,13.000 L4.000,19.000 L9.000,19.000 L9.000,13.000 ZM13.000,19.000 L18.000,19.000 L18.000,13.000 L13.000,13.000 L13.000,19.000 ZM16.000,3.000 C14.656,2.906 13.000,5.000 13.000,5.000 C13.000,5.000 15.781,5.562 17.000,5.000 C18.219,4.437 17.344,3.093 16.000,3.000 ZM19.000,8.000 L13.000,8.000 L13.000,11.000 L19.000,11.000 C19.000,11.000 19.925,11.105 20.000,10.000 C20.139,7.927 19.000,8.000 19.000,8.000 Z"/>
</svg>