<svg 
 xmlns="http://www.w3.org/2000/svg"
 xmlns:xlink="http://www.w3.org/1999/xlink"
 width="24px" height="32px">
<path fill="rgb(104, 176, 201)"
 d="M12.000,31.999 C12.000,31.999 -0.000,18.627 -0.000,12.000 C-0.000,5.372 5.373,-0.000 12.000,-0.000 C18.627,-0.000 24.000,5.372 24.000,12.000 C24.000,18.627 12.000,31.999 12.000,31.999 ZM12.000,2.000 C6.477,2.000 2.000,6.701 2.000,12.500 C2.000,18.299 12.000,29.000 12.000,29.000 C12.000,29.000 22.000,18.299 22.000,12.500 C22.000,6.701 17.523,2.000 12.000,2.000 ZM12.000,19.000 C8.134,19.000 5.000,15.866 5.000,12.000 C5.000,8.134 8.134,5.000 12.000,5.000 C15.866,5.000 19.000,8.134 19.000,12.000 C19.000,15.866 15.866,19.000 12.000,19.000 ZM12.000,7.000 C9.239,7.000 7.000,9.238 7.000,12.000 C7.000,14.761 9.239,17.000 12.000,17.000 C14.761,17.000 17.000,14.761 17.000,12.000 C17.000,9.238 14.761,7.000 12.000,7.000 Z"/>
</svg>