<svg width="44" height="26" viewBox="0 0 44 26" fill="none" xmlns="http://www.w3.org/2000/svg">
    <rect width="44" height="26" rx="2" fill="white"/>
    <g clip-path="url(#clip0)">
        <path d="M11.7886 8.67602C11.4175 9.11513 10.8238 9.46147 10.23 9.41199C10.1558 8.81827 10.4465 8.18744 10.7867 7.79781C11.1577 7.34634 11.8071 7.02474 12.3328 7C12.3947 7.61846 12.1535 8.22455 11.7886 8.67602ZM12.3266 9.5295C11.467 9.48002 10.731 10.0181 10.3228 10.0181C9.90845 10.0181 9.28381 9.55423 8.6035 9.5666C7.71911 9.57897 6.89656 10.0799 6.44508 10.8777C5.51739 12.4734 6.20388 14.8359 7.10065 16.1346C7.53975 16.7778 8.06544 17.4829 8.75812 17.4581C9.41368 17.4334 9.67343 17.0314 10.4651 17.0314C11.2629 17.0314 11.4917 17.4581 12.1844 17.4458C12.9018 17.4334 13.3533 16.8026 13.7924 16.1594C14.2933 15.4296 14.4974 14.7184 14.5098 14.6813C14.4974 14.6689 13.1244 14.1432 13.1121 12.5599C13.0997 11.2364 14.1944 10.6056 14.2438 10.5685C13.6254 9.65319 12.6606 9.55423 12.3266 9.5295ZM17.2928 7.73597V17.3777H18.7895V14.0814H20.8614C22.7538 14.0814 24.0835 12.7826 24.0835 10.9025C24.0835 9.02236 22.7786 7.73597 20.9108 7.73597H17.2928ZM18.7895 8.99762H20.515C21.8138 8.99762 22.5559 9.69029 22.5559 10.9087C22.5559 12.127 21.8138 12.8259 20.5088 12.8259H18.7895V8.99762ZM26.8171 17.452C27.7572 17.452 28.6292 16.9757 29.025 16.2212H29.0559V17.3777H30.4413V12.5785C30.4413 11.187 29.328 10.2902 27.6149 10.2902C26.0255 10.2902 24.8504 11.1993 24.8071 12.4486H26.1554C26.2667 11.8549 26.8171 11.4653 27.5716 11.4653C28.4869 11.4653 29.0003 11.892 29.0003 12.6775V13.2093L27.1325 13.3206C25.3947 13.4258 24.4546 14.137 24.4546 15.3739C24.4546 16.6232 25.4256 17.452 26.8171 17.452ZM27.2191 16.3078C26.4213 16.3078 25.9142 15.9244 25.9142 15.3368C25.9142 14.7307 26.4027 14.3782 27.3366 14.3226L29.0003 14.2174V14.7617C29.0003 15.6646 28.2334 16.3078 27.2191 16.3078ZM32.2905 20C33.75 20 34.4365 19.4434 35.0364 17.755L37.6649 10.383H36.1435L34.3809 16.079H34.3499L32.5873 10.383H31.0226L33.5583 17.4025L33.4222 17.8292C33.1934 18.5528 32.8223 18.8311 32.1606 18.8311C32.0431 18.8311 31.8143 18.8187 31.7215 18.8064V19.9629C31.8081 19.9876 32.1791 20 32.2905 20Z" fill="black"/>
    </g>
    <defs>
        <clipPath id="clip0">
            <rect width="31.6651" height="13" fill="white" transform="translate(6 7)"/>
        </clipPath>
    </defs>
</svg>
