<svg width="32" height="32" viewBox="0 0 32 32" fill="none" xmlns="http://www.w3.org/2000/svg">
    <path d="M26.6667 32H5.33333C2.38781 32 0 29.6122 0 26.6667V5.33333C0 2.38781 2.38781 0 5.33333 0H26.6667C29.6122 0 32 2.38781 32 5.33333V26.6667C32 29.6122 29.6122 32 26.6667 32Z" fill="#ADD77A"/>
    <path d="M19.178 15.9358L26.0001 22.1865V9.94189L19.178 15.9358Z" fill="white"/>
    <path d="M6 9.68506V22.101L12.8221 15.8502L6 9.68506Z" fill="white"/>
    <path d="M17.2287 16.1499L25.3643 9H25.322H6.88965L14.7711 16.1499C15.4914 16.7492 16.5507 16.7921 17.2287 16.1499Z" fill="white"/>
    <path d="M17.9492 17.0061C17.3983 17.4771 16.7203 17.734 16 17.734C15.2797 17.734 14.6017 17.4771 14.0085 16.9633L13.5847 16.578L6.55078 23C6.59315 23 6.59315 23 6.63553 23H25.2373L18.3305 16.6636L17.9492 17.0061Z" fill="white"/>
</svg>