<svg width="44" height="26" viewBox="0 0 44 26" fill="none" xmlns="http://www.w3.org/2000/svg">
    <rect width="44" height="26" rx="2" fill="white"/>
    <g clip-path="url(#clip0)">
        <path d="M21.2677 14.3534V18.1684H20.0754V8.75086H23.2367C23.6149 8.74293 23.9909 8.81144 24.342 8.95228C24.6931 9.09311 25.0122 9.30339 25.2801 9.57049C25.8018 10.0663 26.108 10.747 26.1329 11.4663C26.1577 12.1855 25.8993 12.8858 25.4131 13.4165L25.2801 13.5476C24.7246 14.081 24.0437 14.3515 23.2367 14.3515L21.2677 14.3534ZM21.2677 9.9078V13.1971H23.2663C23.4859 13.204 23.7045 13.164 23.9075 13.0799C24.1104 12.9957 24.2931 12.8693 24.4434 12.7091C24.742 12.3918 24.9052 11.9707 24.8982 11.5351C24.8913 11.0995 24.7148 10.6838 24.4062 10.3763C24.1027 10.0766 23.6929 9.90928 23.2663 9.91096L21.2677 9.9078Z" fill="#3C4043"/>
        <path d="M28.8863 11.5149C29.769 11.5149 30.4625 11.7551 30.9739 12.2286C31.4852 12.7021 31.7361 13.3635 31.7361 14.1964V18.1684H30.5956V17.2744H30.5439C30.0477 18.0102 29.3964 18.3784 28.5749 18.3784C27.8813 18.3784 27.2868 18.1678 26.8202 17.7479C26.5929 17.5542 26.4117 17.3121 26.29 17.0394C26.1683 16.7667 26.109 16.4702 26.1166 16.1717C26.1166 15.5034 26.3688 14.9775 26.8644 14.5797C27.3599 14.1819 28.027 13.9864 28.8561 13.9864C29.5666 13.9864 30.1442 14.1213 30.6031 14.3767V14.098C30.6031 13.8948 30.5595 13.6939 30.4752 13.509C30.3909 13.3241 30.2679 13.1595 30.1145 13.0262C29.7995 12.7426 29.3909 12.5854 28.967 12.5848C28.3008 12.5848 27.7754 12.8702 27.3908 13.441L26.3398 12.7727C26.9016 11.9354 27.7515 11.5149 28.8863 11.5149ZM27.3454 16.1956C27.3446 16.3486 27.3797 16.4996 27.4478 16.6366C27.5159 16.7736 27.6152 16.8927 27.7376 16.9844C28 17.194 28.3273 17.3055 28.6631 17.2996C28.9126 17.2994 29.1596 17.2494 29.3896 17.1528C29.6197 17.0561 29.8281 16.9146 30.0029 16.7366C30.3951 16.3583 30.5949 15.917 30.5949 15.4075C30.2249 15.1074 29.7066 14.9567 29.0402 14.9662C28.5591 14.9662 28.1518 15.0866 27.8259 15.3192C27.4999 15.5519 27.3454 15.84 27.3454 16.1956Z" fill="#3C4043"/>
        <path d="M38.2806 11.7255L34.2978 20.9999H33.0684L34.5494 17.7554L31.936 11.7255H33.2317L35.1194 16.3513H35.1414L36.985 11.7255H38.2806Z" fill="#3C4043"/>
        <path d="M16.4482 13.5274C16.4483 13.1602 16.4186 12.7935 16.3593 12.431H11.3318V14.5116H14.2118C14.1538 14.8434 14.0294 15.16 13.8463 15.4427C13.6631 15.7253 13.4248 15.9681 13.1457 16.1566V17.5083H14.8631C15.8707 16.5689 16.4482 15.1793 16.4482 13.5274Z" fill="#4285F4"/>
        <path d="M11.3317 18.814C12.768 18.814 13.9797 18.3336 14.8624 17.507L13.145 16.1553C12.6639 16.4856 12.0492 16.6735 11.3311 16.6735C9.93896 16.6735 8.76184 15.7196 8.34005 14.4429H6.57153V15.8394C7.00851 16.7299 7.68589 17.4804 8.52709 18.0061C9.36829 18.5317 10.3398 18.8116 11.3317 18.814Z" fill="#34A853"/>
        <path d="M8.34154 14.4435C8.11934 13.7704 8.11934 13.0436 8.34154 12.3705V10.9834H6.57176C6.19558 11.7367 5.99976 12.5672 5.99976 13.4092C5.99976 14.2512 6.19558 15.0817 6.57176 15.835L8.34154 14.4435Z" fill="#FBBC04"/>
        <path d="M11.3317 10.1429C11.7091 10.1354 12.0842 10.203 12.4352 10.3417C12.7862 10.4805 13.1062 10.6877 13.3764 10.9512L14.9015 9.40401C13.9393 8.48965 12.659 7.98582 11.3317 7.99929C10.3391 8.00321 9.36744 8.28454 8.5263 8.8115C7.68517 9.33846 7.0081 10.0901 6.57153 10.9815L8.34131 12.378C8.7631 11.0943 9.94022 10.1429 11.3317 10.1429Z" fill="#EA4335"/>
    </g>
    <defs>
        <clipPath id="clip0">
            <rect width="32.2809" height="13" fill="white" transform="translate(6 8)"/>
        </clipPath>
    </defs>
</svg>
