<svg xmlns="http://www.w3.org/2000/svg" width="24" height="24" viewBox="0 0 24 24">
    <path fill="#434343" fill-rule="nonzero" d="M20 24H4c-2.2 0-4-1.8-4-4V4c0-2.2 1.8-4 4-4h16c2.2 0 4 1.8 4 4v16c0 2.2-1.8 4-4 4zM14.9 5.5H9.1c-2 0-3.6 1.6-3.6 3.6v5.8c0 2 1.6 3.6 3.6 3.6h5.8c2 0 3.6-1.6 3.6-3.6V9.1c0-2-1.6-3.6-3.6-3.6zm2.4 9.4c0 1.3-1.1 2.4-2.4 2.4H9.1c-1.3 0-2.4-1.1-2.4-2.4V9.1c0-1.3 1.1-2.4 2.4-2.4h5.8c1.3 0 2.4 1.1 2.4 2.4v5.8zm-1.8-7.2c-.2 0-.4.1-.6.2-.2.2-.2.4-.2.6 0 .2.1.4.2.6.2.2.4.2.6.2.2 0 .4-.1.6-.2.2-.2.2-.4.2-.6 0-.2-.1-.4-.2-.6-.2-.1-.4-.2-.6-.2zm-3.5 1c-1.8 0-3.3 1.5-3.3 3.3 0 1.8 1.5 3.3 3.3 3.3 1.8 0 3.3-1.5 3.3-3.3 0-1.8-1.5-3.3-3.3-3.3zm0 5.5c-1.2 0-2.2-1-2.2-2.2 0-1.2 1-2.2 2.2-2.2 1.2 0 2.2 1 2.2 2.2 0 1.2-1 2.2-2.2 2.2z"/>
</svg>
