<svg width="34" height="26" viewBox="0 0 34 26" fill="none" xmlns="http://www.w3.org/2000/svg">
    <rect width="34" height="26" rx="2" fill="white"/>
    <path d="M9.18118 21.9107V20.7193C9.18118 20.2626 8.90506 19.9647 8.43171 19.9647C8.19504 19.9647 7.93864 20.0441 7.76113 20.3023C7.62307 20.0839 7.42584 19.9647 7.13 19.9647C6.93277 19.9647 6.73554 20.0243 6.57776 20.2427V20.0044H6.16357V21.9107H6.57776V20.8583C6.57776 20.5207 6.75526 20.3618 7.03138 20.3618C7.3075 20.3618 7.44556 20.5406 7.44556 20.8583V21.9107H7.85975V20.8583C7.85975 20.5207 8.05698 20.3618 8.31337 20.3618C8.58949 20.3618 8.72756 20.5406 8.72756 20.8583V21.9107H9.18118ZM15.315 20.0044H14.6444V19.4286H14.2303V20.0044H13.8555V20.3817H14.2303V21.2554C14.2303 21.6922 14.4078 21.9504 14.8811 21.9504C15.0586 21.9504 15.2558 21.8908 15.3939 21.8114L15.2756 21.454C15.1572 21.5334 15.0192 21.5532 14.9206 21.5532C14.7233 21.5532 14.6444 21.4341 14.6444 21.2355V20.3817H15.315V20.0044ZM18.8257 19.9647C18.589 19.9647 18.4312 20.0839 18.3326 20.2427V20.0044H17.9184V21.9107H18.3326V20.8384C18.3326 20.5207 18.4707 20.342 18.7271 20.342C18.806 20.342 18.9046 20.3618 18.9835 20.3817L19.1018 19.9846C19.0229 19.9647 18.9046 19.9647 18.8257 19.9647ZM13.5202 20.1633C13.323 20.0243 13.0469 19.9647 12.751 19.9647C12.2777 19.9647 11.9621 20.203 11.9621 20.5803C11.9621 20.898 12.1988 21.0767 12.613 21.1362L12.8102 21.1561C13.0272 21.1958 13.1455 21.2554 13.1455 21.3547C13.1455 21.4937 12.9877 21.5929 12.7116 21.5929C12.4355 21.5929 12.2185 21.4937 12.0805 21.3944L11.8832 21.7121C12.1002 21.8709 12.396 21.9504 12.6919 21.9504C13.2441 21.9504 13.5597 21.6922 13.5597 21.3348C13.5597 20.9973 13.3033 20.8185 12.9088 20.759L12.7116 20.7391C12.5341 20.7193 12.396 20.6795 12.396 20.5604C12.396 20.4214 12.5341 20.342 12.751 20.342C12.9877 20.342 13.2244 20.4413 13.3427 20.5008L13.5202 20.1633ZM24.5256 19.9647C24.2889 19.9647 24.1312 20.0839 24.0325 20.2427V20.0044H23.6184V21.9107H24.0325V20.8384C24.0325 20.5207 24.1706 20.342 24.427 20.342C24.5059 20.342 24.6045 20.3618 24.6834 20.3817L24.8017 19.9846C24.7229 19.9647 24.6045 19.9647 24.5256 19.9647ZM19.2399 20.9575C19.2399 21.5334 19.6343 21.9504 20.2457 21.9504C20.5219 21.9504 20.7191 21.8908 20.9163 21.7319L20.7191 21.3944C20.5613 21.5135 20.4035 21.5731 20.226 21.5731C19.8907 21.5731 19.6541 21.3348 19.6541 20.9575C19.6541 20.6001 19.8907 20.3618 20.226 20.342C20.4035 20.342 20.5613 20.4016 20.7191 20.5207L20.9163 20.1831C20.7191 20.0243 20.5219 19.9647 20.2457 19.9647C19.6343 19.9647 19.2399 20.3817 19.2399 20.9575ZM23.0661 20.9575V20.0044H22.6519V20.2427C22.5139 20.064 22.3167 19.9647 22.0603 19.9647C21.5277 19.9647 21.1136 20.3817 21.1136 20.9575C21.1136 21.5334 21.5277 21.9504 22.0603 21.9504C22.3364 21.9504 22.5336 21.8511 22.6519 21.6724V21.9107H23.0661V20.9575ZM21.5475 20.9575C21.5475 20.62 21.7644 20.342 22.1194 20.342C22.4547 20.342 22.6914 20.6001 22.6914 20.9575C22.6914 21.2951 22.4547 21.5731 22.1194 21.5731C21.7644 21.5532 21.5475 21.2951 21.5475 20.9575ZM16.597 19.9647C16.0448 19.9647 15.6503 20.3618 15.6503 20.9575C15.6503 21.5532 16.0448 21.9504 16.6167 21.9504C16.8928 21.9504 17.169 21.8709 17.3859 21.6922L17.1887 21.3944C17.0309 21.5135 16.8337 21.5929 16.6364 21.5929C16.3801 21.5929 16.1237 21.4738 16.0645 21.1362H17.4648V20.9774C17.4845 20.3618 17.1295 19.9647 16.597 19.9647ZM16.597 20.3221C16.8534 20.3221 17.0309 20.481 17.0704 20.7788H16.0842C16.1237 20.5207 16.3012 20.3221 16.597 20.3221ZM26.8727 20.9575V19.2499H26.4585V20.2427C26.3204 20.064 26.1232 19.9647 25.8668 19.9647C25.3343 19.9647 24.9201 20.3817 24.9201 20.9575C24.9201 21.5334 25.3343 21.9504 25.8668 21.9504C26.1429 21.9504 26.3401 21.8511 26.4585 21.6724V21.9107H26.8727V20.9575ZM25.354 20.9575C25.354 20.62 25.5709 20.342 25.9259 20.342C26.2612 20.342 26.4979 20.6001 26.4979 20.9575C26.4979 21.2951 26.2612 21.5731 25.9259 21.5731C25.5709 21.5532 25.354 21.2951 25.354 20.9575ZM11.5085 20.9575V20.0044H11.0943V20.2427C10.9562 20.064 10.759 19.9647 10.5026 19.9647C9.9701 19.9647 9.55592 20.3817 9.55592 20.9575C9.55592 21.5334 9.9701 21.9504 10.5026 21.9504C10.7787 21.9504 10.976 21.8511 11.0943 21.6724V21.9107H11.5085V20.9575ZM9.9701 20.9575C9.9701 20.62 10.1871 20.342 10.5421 20.342C10.8774 20.342 11.114 20.6001 11.114 20.9575C11.114 21.2951 10.8774 21.5731 10.5421 21.5731C10.1871 21.5532 9.9701 21.2951 9.9701 20.9575Z" fill="black"/>
    <path d="M19.5951 5.52893H13.3823V16.7677H19.5951V5.52893Z" fill="#FF5F00"/>
    <path d="M13.7767 11.1483C13.7767 8.86485 14.8417 6.83948 16.4787 5.52895C15.2756 4.57584 13.757 4 12.1003 4C8.17539 4 5 7.1969 5 11.1483C5 15.0998 8.17539 18.2967 12.1003 18.2967C13.757 18.2967 15.2756 17.7208 16.4787 16.7677C14.8417 15.4771 13.7767 13.4318 13.7767 11.1483Z" fill="#EB001B"/>
    <path d="M27.9773 11.1483C27.9773 15.0998 24.8019 18.2967 20.877 18.2967C19.2203 18.2967 17.7016 17.7208 16.4985 16.7677C18.1553 15.4572 19.2006 13.4318 19.2006 11.1483C19.2006 8.86485 18.1355 6.83948 16.4985 5.52895C17.7016 4.57584 19.2203 4 20.877 4C24.8019 4 27.9773 7.21676 27.9773 11.1483Z" fill="#F79E1B"/>
</svg>
