<svg width="44" height="26" viewBox="0 0 44 26" fill="none" xmlns="http://www.w3.org/2000/svg">
    <rect width="44" height="26" rx="2" fill="white"/>
    <g clip-path="url(#clip0)">
        <path d="M35.701 8.15381H29.5649C29.7623 9.22652 30.3116 10.2017 31.1249 10.9235C31.9383 11.6453 32.9687 12.072 34.0515 12.1354H38.934C38.9886 11.9187 39.0108 11.695 39 11.4718C39 10.5918 38.6524 9.74786 38.0337 9.12562C37.4151 8.50338 36.576 8.15381 35.701 8.15381Z" fill="url(#paint0_linear)"/>
        <path d="M30.0928 12.4672V17.4441H33.0618V14.7897H35.701C36.3951 14.78 37.0685 14.5503 37.6253 14.1333C38.1821 13.7162 38.5939 13.1332 38.8021 12.4672H30.0928Z" fill="#4DB45F"/>
        <path d="M19.5361 8.15381V17.4441H22.1753C22.3841 17.4321 22.5859 17.3643 22.7599 17.2477C22.9338 17.131 23.0737 16.9697 23.165 16.7805L25.4743 12.1354H25.8042V17.4441H28.7732V8.15381H26.1341C25.9302 8.18266 25.7354 8.25729 25.564 8.37216C25.3927 8.48703 25.2493 8.63921 25.1444 8.8174L22.8351 13.4626H22.5052V8.15381H19.5361Z" fill="#4DB45F"/>
        <path d="M7 17.4441V8.15381H9.96907C9.96907 8.15381 10.8268 8.15381 11.2887 9.481C12.4763 12.998 12.6082 13.4626 12.6082 13.4626C12.6082 13.4626 12.8722 12.5999 13.9278 9.481C14.3897 8.15381 15.2474 8.15381 15.2474 8.15381H18.2165V17.4441H15.2474V12.4672H14.9175L13.268 17.4441H11.9485L10.299 12.4672H9.96907V17.4441H7Z" fill="#4DB45F"/>
    </g>
    <defs>
        <linearGradient id="paint0_linear" x1="29.5451" y1="10.1446" x2="39" y2="10.1446" gradientUnits="userSpaceOnUse">
            <stop stop-color="#00B4E6"/>
            <stop offset="1" stop-color="#088CCB"/>
        </linearGradient>
        <clipPath id="clip0">
            <rect width="32" height="9.29032" fill="white" transform="translate(7 8.15381)"/>
        </clipPath>
    </defs>
</svg>
