<svg xmlns="http://www.w3.org/2000/svg" width="24" height="24" viewBox="0 0 24 24">
    <path fill="#434343" fill-rule="nonzero" d="M20 24H4c-2.2 0-4-1.8-4-4V4c0-2.2 1.8-4 4-4h16c2.2 0 4 1.8 4 4v16c0 2.2-1.8 4-4 4zm-3.2-11c-.4-.6-1.2-.8-1.8-.4a5.45 5.45 0 0 1-6 0c-.6-.4-1.4-.2-1.8.4-.4.6-.2 1.4.4 1.8.8.5 1.7.9 2.6 1.1l-2.5 2.5c-.5.5-.5 1.3 0 1.9.5.5 1.3.5 1.9 0l2.5-2.5 2.5 2.5c.5.5 1.3.5 1.9 0 .5-.5.5-1.3 0-1.9L14 15.9c.9-.2 1.8-.6 2.6-1.1.4-.3.6-1.1.2-1.8zm-4.8-.7c2.5 0 4.5-2 4.5-4.5s-2-4.5-4.5-4.5-4.5 2-4.5 4.5 2 4.5 4.5 4.5zm0-6.4c1 0 1.9.8 1.9 1.9 0 1-.8 1.9-1.9 1.9-1 0-1.9-.8-1.9-1.9 0-1 .9-1.9 1.9-1.9z"/>
</svg>
