<svg width="32" height="32" viewBox="0 0 32 32" fill="none" xmlns="http://www.w3.org/2000/svg">
    <path d="M26.6667 32H5.33333C2.38781 32 0 29.6122 0 26.6667V5.33333C0 2.38781 2.38781 0 5.33333 0H26.6667C29.6122 0 32 2.38781 32 5.33333V26.6667C32 29.6122 29.6122 32 26.6667 32Z" fill="#D9D9D9"/>
    <path fill-rule="evenodd" clip-rule="evenodd" d="M19.6798 9.92952C20.7796 10.0987 21.0334 10.3525 21.3717 10.7755C21.7101 11.1984 22.979 13.99 22.979 13.99C22.979 13.99 24.2479 14.413 25.7706 14.5822C27.2087 14.6668 27.0395 14.6668 27.2933 14.413C27.5471 14.1592 28.1393 13.4825 27.9701 11.8752C27.8009 10.3525 26.1936 9.16817 23.5712 8.49142C19.0877 7.39169 12.9969 7.39169 8.42882 8.49142C5.891 9.16817 4.28371 10.3525 4.02992 11.8752C3.86074 13.4825 4.4529 14.1592 4.70668 14.413C4.96046 14.6668 4.79127 14.6668 6.31397 14.5822C7.83666 14.413 9.02098 13.99 9.02098 13.99C9.02098 13.99 10.2899 11.1984 10.6283 10.7755C10.9666 10.3525 11.305 10.0987 12.3202 9.92952C12.6585 9.84493 19.3415 9.84493 19.6798 9.92952ZM13.2507 11.8752C14.435 12.6365 17.6496 12.6365 18.7493 11.8752C21.6255 12.4673 22.4715 15.259 23.0636 17.7122C23.825 20.1654 23.6558 21.3497 23.6558 21.8573C23.5712 22.2803 23.0636 22.957 22.4715 23.803C21.8793 24.7335 20.7796 24.5643 20.7796 24.5643C17.4804 24.6489 14.5196 24.6489 11.305 24.5643C11.305 24.5643 10.1207 24.7335 9.52855 23.803C8.93639 22.957 8.42882 22.2803 8.42882 21.8573C8.34423 21.3497 8.25963 20.1654 8.93639 17.7122C9.61314 15.259 10.3745 12.4673 13.2507 11.8752ZM16.0423 14.0746C18.1572 14.0746 19.9336 15.259 19.9336 16.7816C19.9336 18.3043 18.1572 19.5733 16.0423 19.5733C13.8428 19.5733 12.151 18.3043 12.151 16.7816C12.151 15.259 13.8428 14.0746 16.0423 14.0746ZM16.0423 15.1744C17.3112 15.1744 18.3263 15.8511 18.3263 16.7816C18.3263 17.7122 17.3112 18.4735 16.0423 18.4735C14.6888 18.4735 13.6737 17.7122 13.6737 16.7816C13.6737 15.8511 14.6888 15.1744 16.0423 15.1744Z" fill="#434343"/>
</svg>