<svg width="32" height="26" viewBox="0 0 32 26" fill="none" xmlns="http://www.w3.org/2000/svg">
    <rect width="32" height="26" rx="2" fill="white"/>
    <g clip-path="url(#clip0)">
        <path d="M8.3451 9.77996C8.8851 7.16996 10.5501 5.71496 13.1501 5.27496C15.0558 4.94366 17.0044 4.94366 18.9101 5.27496C21.5851 5.74496 23.1951 7.27496 23.7051 9.93496C24.1069 11.9686 24.1069 14.0613 23.7051 16.095C23.5048 17.286 22.9248 18.3803 22.0516 19.2147C21.1785 20.0491 20.059 20.5789 18.8601 20.725C16.9544 21.0563 15.0058 21.0563 13.1001 20.725C10.4201 20.255 8.8051 18.64 8.2901 16C7.8846 13.9445 7.90332 11.8279 8.3451 9.77996Z" fill="black"/>
        <path d="M8.3451 9.77996C8.8851 7.16996 10.5501 5.71496 13.1501 5.27496C15.0558 4.94366 17.0044 4.94366 18.9101 5.27496C21.5851 5.74496 23.1951 7.27496 23.7051 9.93496C24.1069 11.9686 24.1069 14.0613 23.7051 16.095C23.5048 17.286 22.9248 18.3803 22.0516 19.2147C21.1785 20.0491 20.059 20.5789 18.8601 20.725C16.9544 21.0563 15.0058 21.0563 13.1001 20.725C10.4201 20.255 8.8051 18.64 8.2901 16C7.8846 13.9445 7.90332 11.8279 8.3451 9.77996Z" fill="#3056D3"/>
        <path d="M16.2901 11.0349C16.7847 11.0349 17.2591 11.2314 17.6089 11.5812C17.9586 11.9309 18.1551 12.4053 18.1551 12.8999C18.1551 12.9849 18.1551 14.6899 18.1551 14.6899H17.4451V12.9549C17.4451 12.9199 17.4451 12.8849 17.4451 12.8499C17.4177 12.5582 17.2791 12.2883 17.0579 12.0961C16.8368 11.9039 16.5502 11.8043 16.2575 11.8178C15.9649 11.8313 15.6887 11.9569 15.4862 12.1687C15.2837 12.3804 15.1705 12.6619 15.1701 12.9549C15.1732 13.0994 15.2055 13.2418 15.2651 13.3734C15.3247 13.5051 15.4103 13.6233 15.5168 13.721C15.6234 13.8186 15.7486 13.8937 15.8849 13.9416C16.0213 13.9896 16.1659 14.0094 16.3101 13.9999H16.5451V14.6799H16.2901C16.0503 14.6872 15.8115 14.6468 15.5875 14.561C15.3635 14.4752 15.1587 14.3457 14.9852 14.1801C14.8117 14.0145 14.6728 13.816 14.5766 13.5962C14.4805 13.3765 14.429 13.1398 14.4251 12.8999C14.4251 12.4053 14.6216 11.9309 14.9714 11.5812C15.3211 11.2314 15.7955 11.0349 16.2901 11.0349ZM12.6701 11.1449C13.1074 11.177 13.5149 11.3783 13.8061 11.7059C14.0974 12.0336 14.2495 12.4619 14.2301 12.8999C14.2391 13.1339 14.2 13.3673 14.1153 13.5857C14.0306 13.804 13.902 14.0027 13.7376 14.1695C13.5732 14.3363 13.3763 14.4676 13.1592 14.5554C12.9421 14.6432 12.7092 14.6855 12.4751 14.6799H12.1101V13.9999H12.4251C12.5651 14.0019 12.7042 13.9761 12.8342 13.924C12.9642 13.872 13.0826 13.7947 13.1826 13.6966C13.2825 13.5985 13.3621 13.4815 13.4166 13.3525C13.4711 13.2235 13.4995 13.085 13.5001 12.9449C13.5002 12.7293 13.4392 12.5181 13.3242 12.3358C13.2091 12.1535 13.0448 12.0076 12.8501 11.9149C12.7527 11.8647 12.6446 11.839 12.5351 11.8399H11.3001V15.7049H10.6101V11.9649C10.6114 11.7492 10.6977 11.5426 10.8503 11.3901C11.0028 11.2375 11.2094 11.1512 11.4251 11.1499H12.6701V11.1449ZM21.3001 11.2549H22.0001L19.8001 15.8249H19.0901L21.2951 11.2649L21.3001 11.2549ZM19.8251 13.0399L19.4701 13.7749L18.2501 11.2749H18.9601L19.8251 13.0399Z" fill="white"/>
    </g>
    <defs>
        <clipPath id="clip0">
            <rect width="16" height="16" fill="white" transform="translate(8 5)"/>
        </clipPath>
    </defs>
</svg>
