<svg width="32" height="32" viewBox="0 0 32 32" fill="none" xmlns="http://www.w3.org/2000/svg">
    <path d="M26.6667 32H5.33333C2.38781 32 0 29.6122 0 26.6667V5.33333C0 2.38781 2.38781 0 5.33333 0H26.6667C29.6122 0 32 2.38781 32 5.33333V26.6667C32 29.6122 29.6122 32 26.6667 32Z" fill="#635DAA"/>
    <path fill-rule="evenodd" clip-rule="evenodd" d="M16.6001 5.01333C21.9468 5.03999 24.3468 6.78666 24.9468 7.33333C26.9201 9.03999 28.0001 12.84 27.2001 18.8267C27.0797 22.1616 24.626 24.9499 21.3334 25.4933C19.0052 26.0592 16.5992 26.2349 14.2134 26.0133C13.8534 26.5067 13.2801 27.1467 12.8801 27.5867C12.1334 28.4267 11.5068 29.12 10.9068 28.92C10.3068 28.72 10.3068 27.7467 10.3068 27.7467V25.3333C4.69342 23.7067 4.77342 17.9067 4.84008 14.7867C4.90675 11.6667 5.50675 9.17333 7.26675 7.45333C10.2934 4.62666 16.6001 5.01333 16.6001 5.01333ZM20.9798 23.7062C21.9563 23.5134 25.045 22.9035 25.6001 18.4133V18.4C26.2134 13.3333 25.3334 9.97334 23.7467 8.54668C23.2134 8.04001 21.0667 6.70668 16.5467 6.70668C16.5467 6.70668 11.2134 6.34668 8.54672 8.70668C7.10672 10.1333 6.60006 12.2667 6.54672 14.8667C6.54492 14.9548 6.54285 15.0457 6.54072 15.1389C6.48018 17.7971 6.37432 22.4452 10.9601 23.7333V27.7333C10.9601 27.96 10.9867 28.1467 11.1201 28.1467C11.2528 28.1586 11.3828 28.1036 11.4667 28C12.2267 27.2267 14.6534 24.2667 14.6534 24.2667C16.7124 24.4124 18.7816 24.237 20.7867 23.7467C20.8356 23.7347 20.9008 23.7218 20.9798 23.7062Z" fill="white"/>
    <path d="M17.0133 12.48C16.8716 12.5101 16.7703 12.6352 16.7703 12.78C16.7703 12.9249 16.8716 13.05 17.0133 13.08C17.4313 13.0623 17.8362 13.2272 18.1229 13.5318C18.4096 13.8364 18.5496 14.2506 18.5067 14.6667C18.5138 14.8308 18.649 14.9602 18.8133 14.96C18.8947 14.9565 18.9713 14.9209 19.0264 14.8608C19.0814 14.8008 19.1103 14.7214 19.1067 14.64C19.1447 14.068 18.9388 13.5067 18.5398 13.095C18.1409 12.6833 17.5862 12.4599 17.0133 12.48Z" fill="white"/>
    <path d="M20.3468 15.4667C20.5111 15.4669 20.6463 15.3375 20.6534 15.1734C20.7107 14.0754 20.3266 13 19.5868 12.1867C18.7872 11.3612 17.6956 10.8824 16.5468 10.8534C16.4245 10.8274 16.2988 10.8783 16.2289 10.9819C16.159 11.0855 16.159 11.2212 16.2289 11.3248C16.2988 11.4284 16.4245 11.4793 16.5468 11.4534C17.5536 11.4617 18.5147 11.875 19.2134 12.6C19.8067 13.3143 20.0899 14.2359 20.0001 15.16C19.9994 15.2488 20.0371 15.3335 20.1036 15.3923C20.1701 15.4512 20.2588 15.4783 20.3468 15.4667Z" fill="white"/>
    <path d="M15.9999 9.33332C15.8582 9.36336 15.7568 9.48846 15.7568 9.63332C15.7568 9.77817 15.8582 9.90328 15.9999 9.93332C17.4838 9.89409 18.9225 10.4456 19.9999 11.4666C21.111 12.623 21.699 14.1846 21.6266 15.7867C21.6266 15.956 21.7639 16.0933 21.9332 16.0933C22.0146 16.0933 22.0926 16.061 22.1501 16.0035C22.2076 15.946 22.2399 15.868 22.2399 15.7867C22.3132 14.0225 21.6574 12.3059 20.4266 11.04C19.2364 9.90545 17.6436 9.29135 15.9999 9.33332Z" fill="white"/>
    <path d="M21.5332 19.2533C21.5332 19.2533 20.8399 18.68 20.5065 18.4266C20.1732 18.1733 19.6799 17.88 19.3999 17.72C18.9981 17.4745 18.4789 17.5471 18.1599 17.8933L17.7199 18.4533C17.5504 18.6304 17.3111 18.7232 17.0665 18.7066C15.1347 18.1489 13.6243 16.6385 13.0665 14.7066C13.0499 14.4621 13.1427 14.2228 13.3199 14.0533L13.8799 13.6133C14.2261 13.2943 14.2987 12.7751 14.0532 12.3733C13.831 12.0061 13.5907 11.6501 13.3332 11.3066C13.0799 10.9733 12.5065 10.28 12.5065 10.28C12.2348 9.94236 11.7531 9.86208 11.3865 10.0933C10.9562 10.3402 10.5689 10.6554 10.2399 11.0266C10.0098 11.3037 9.86612 11.6421 9.82655 12C9.82097 12.0442 9.82097 12.089 9.82655 12.1333C9.80391 12.2657 9.80391 12.4009 9.82655 12.5333C10.1343 13.4396 10.5365 14.3111 11.0265 15.1333C11.4646 15.9086 11.9686 16.6447 12.5332 17.3333C12.8035 17.6738 13.0929 17.9988 13.3999 18.3066C13.7077 18.6137 14.0327 18.903 14.3732 19.1733C15.0553 19.7143 15.7824 20.1961 16.5465 20.6133C17.3688 21.1033 18.2402 21.5056 19.1465 21.8133C19.2791 21.8334 19.414 21.8334 19.5465 21.8133H19.6799C20.0328 21.7573 20.3617 21.5998 20.6265 21.36C20.9969 21.0301 21.3121 20.643 21.5599 20.2133C21.749 19.9182 21.7384 19.5375 21.5332 19.2533Z" fill="white"/>
</svg>