<svg width="44" height="26" viewBox="0 0 44 26" fill="none" xmlns="http://www.w3.org/2000/svg">
    <rect width="44" height="26" rx="2" fill="white"/>
    <g clip-path="url(#clip0)">
        <path d="M19.031 18.8247H16.0374L17.9075 7.20898H20.9079L19.031 18.8247Z" fill="#00579F"/>
        <path d="M29.9092 7.49883C29.0505 7.16864 28.138 7.00174 27.2183 7.0067C24.2583 7.0067 22.1728 8.59097 22.1594 10.8494C22.1594 12.5146 23.6528 13.4449 24.783 13.9977C25.9132 14.5505 26.337 14.9348 26.337 15.4471C26.3236 16.2224 25.3952 16.5932 24.5274 16.5932C23.5536 16.6196 22.5881 16.4067 21.7154 15.973L21.3185 15.7842L20.9014 18.3932C21.9735 18.8106 23.1148 19.0211 24.265 19.0134C27.4066 19.0134 29.4585 17.4561 29.4786 15.0494C29.4786 13.7011 28.6916 12.7168 26.9626 11.8876C25.9132 11.355 25.2741 10.9977 25.2741 10.4516C25.2741 9.90558 25.819 9.45389 27.003 9.45389C27.7679 9.41651 28.5313 9.55247 29.2365 9.85164L29.5056 9.97299L29.9092 7.49883Z" fill="#00579F"/>
        <path d="M33.8849 14.7123L35.0823 11.4628C35.0823 11.4628 35.3312 10.7887 35.4792 10.3505L35.6878 11.3482C35.6878 11.3482 36.2529 14.1258 36.3605 14.719L33.8849 14.7123ZM37.5849 7.20891H35.2909C34.9594 7.16886 34.6241 7.24231 34.3396 7.41733C34.055 7.59234 33.8379 7.85864 33.7234 8.17295L29.2363 18.8314H32.378L33.0103 17.0921H36.8583C36.9458 17.4965 37.2149 18.8314 37.2149 18.8314H40L37.5849 7.20891Z" fill="#00579F"/>
        <path d="M13.535 7.20898L10.5952 15.1303L10.2723 13.5258C9.54311 11.4454 8.06861 9.71072 6.13501 8.65842L8.82592 18.818H11.9945L16.7036 7.21573H13.535V7.20898Z" fill="#00579F"/>
        <path d="M7.87055 7.20898H3.04709L3 7.44493C6.76055 8.40898 9.24964 10.7348 10.2789 13.5123L9.22945 8.1865C9.16617 7.88533 8.99341 7.61849 8.74476 7.43783C8.49611 7.25718 8.18932 7.17561 7.884 7.20898H7.87055Z" fill="#FAA61A"/>
    </g>
    <defs>
        <clipPath id="clip0">
            <rect width="37" height="12" fill="white" transform="translate(3 7)"/>
        </clipPath>
    </defs>
</svg>
