<svg xmlns="http://www.w3.org/2000/svg" width="24" height="24" viewBox="0 0 24 24">
    <path fill="#434343" fill-rule="nonzero" d="M20 24H4c-2.2 0-4-1.8-4-4V4c0-2.2 1.8-4 4-4h16c2.2 0 4 1.8 4 4v16c0 2.2-1.8 4-4 4zM19 8.3c.1-.3 0-.6-.5-.6H17c-.4 0-.6.2-.7.5 0 0-.8 2-2 3.3-.4.4-.5.5-.7.5-.1 0-.2-.1-.2-.5V8.3c0-.4-.1-.6-.5-.6h-2.5c-.3 0-.4.2-.4.3 0 .4.6.5.6 1.6v2.3c0 .5-.1.6-.3.6-.5 0-1.9-2-2.6-4.2-.2-.4-.3-.6-.7-.6H5.4c-.5 0-.5.2-.5.5 0 .4.5 2.5 2.5 5.3 1.3 1.9 3.2 2.9 4.9 2.9 1 0 1.1-.2 1.1-.6v-1.4c0-.5.1-.5.4-.5.2 0 .6.1 1.6 1 1.1 1.1 1.3 1.6 1.9 1.6h1.6c.5 0 .7-.2.6-.7-.1-.4-.7-1.1-1.3-1.9l-1.1-1.1c-.2-.3-.2-.4 0-.7-.2-.2 1.7-2.9 1.9-3.8z"/>
</svg>
