<svg width="32" height="32" viewBox="0 0 32 32" fill="none" xmlns="http://www.w3.org/2000/svg">
    <path d="M26.6667 32H5.33333C2.38781 32 0 29.6122 0 26.6667V5.33333C0 2.38781 2.38781 0 5.33333 0H26.6667C29.6122 0 32 2.38781 32 5.33333V26.6667C32 29.6122 29.6122 32 26.6667 32Z" fill="#26D366"/>
    <path fill-rule="evenodd" clip-rule="evenodd" d="M27.32 15.0364C27.2972 19.0791 25.1423 22.8096 21.6517 24.8492C18.1611 26.8888 13.8532 26.9347 10.32 24.9697L4 26.9697L6.06667 20.8897C4.99149 19.1268 4.42397 17.1013 4.42667 15.0364C4.63702 8.88112 9.6878 4 15.8467 4C22.0055 4 27.0563 8.88112 27.2667 15.0364H27.32ZM15.84 5.51642C10.558 5.50166 6.26203 9.76775 6.23998 15.0498C6.23506 17.0636 6.87521 19.0261 8.06664 20.6497L6.86664 24.1831L10.56 23.0097C13.9603 25.3085 18.4486 25.1802 21.712 22.6909C24.9755 20.2016 26.2858 15.907 24.9678 12.0199C23.6499 8.13284 19.9978 5.52082 15.8933 5.52975L15.84 5.51642ZM21.2209 17.4088C21.4228 17.5019 21.5586 17.5645 21.6133 17.6631L21.6533 17.7164C21.7334 18.1669 21.6777 18.631 21.4933 19.0497C21.0816 19.7441 20.3925 20.2294 19.6 20.3831C19.5159 20.3919 19.4458 20.4092 19.3743 20.4268C19.0148 20.5155 18.62 20.6128 16.24 19.6897C14.2791 18.771 12.6192 17.3145 11.4533 15.4897C10.7968 14.6681 10.3979 13.6708 10.3066 12.623C10.2894 11.7471 10.6429 10.9045 11.28 10.303C11.4696 10.0884 11.7403 9.96273 12.0266 9.95638H12.56C12.5791 9.95638 12.5992 9.95505 12.6202 9.95365C12.7744 9.9434 12.9754 9.93004 13.1866 10.423C13.2954 10.6767 13.4697 11.0973 13.6342 11.4939C13.8328 11.9728 14.0168 12.4168 14.0533 12.4897C14.1339 12.6396 14.1339 12.8199 14.0533 12.9697C13.9828 13.1379 13.8885 13.295 13.7733 13.4364C13.6861 13.5316 13.5941 13.6362 13.5086 13.7334C13.4504 13.7996 13.3953 13.8624 13.3466 13.9164C13.3395 13.9243 13.3323 13.9322 13.3249 13.9403C13.2088 14.0676 13.0761 14.213 13.2266 14.4764C13.6497 15.1894 14.1753 15.8363 14.7866 16.3964C15.4556 16.967 16.2179 17.418 17.04 17.7297C17.32 17.8764 17.4666 17.8497 17.64 17.6631C17.8133 17.4764 18.3466 16.8364 18.5333 16.5697C18.72 16.3031 18.8933 16.3431 19.16 16.4364C19.3664 16.5086 20.2356 16.9322 20.7479 17.1819C20.8975 17.2548 21.0167 17.3129 21.08 17.3431C21.13 17.3669 21.177 17.3886 21.2209 17.4088Z" fill="white"/>
</svg>